<svg viewBox="0 0 628 583" fill="none" xmlns="http://www.w3.org/2000/svg">
<path d="M502.635 76.3159C502.635 76.3159 515.428 103.18 510.311 115.972C505.194 128.764 529.499 142.836 529.499 142.836L561.48 124.927V101.901L556.363 91.6667C556.363 91.6667 535.895 80.1536 538.454 62.2444C541.012 44.3351 502.635 76.3159 502.635 76.3159Z" fill="#8E5860"/>
<path d="M478.33 188.888C478.33 188.888 475.771 217.031 475.771 220.869C475.771 224.707 471.934 237.499 471.934 237.499C471.934 237.499 457.862 302.74 448.908 309.136C439.953 315.532 434.836 355.188 448.908 352.63C462.979 350.071 466.817 315.532 466.817 315.532L495.942 260.535L500.077 194.005L478.33 188.888Z" fill="#A0616A"/>
<path d="M488.564 132.602H478.33C478.33 132.602 468.096 194.005 478.33 196.564C488.564 199.122 507.752 199.122 507.752 199.122L488.564 132.602Z" fill="#575A89"/>
<path d="M546.129 527.885L551.246 552.19L561.48 544.515L556.363 522.768L546.129 526.605V527.885Z" fill="#A0616A"/>
<path d="M500.077 268.201L492.401 273.318C492.401 273.318 488.564 318.091 497.518 352.63C506.473 387.169 512.869 428.105 512.869 428.105C512.869 428.105 528.22 530.443 532.058 533.002C535.895 535.56 560.201 536.839 561.48 531.722C562.759 526.605 552.525 430.663 552.525 430.663C552.525 430.663 544.85 350.071 551.246 339.838C551.246 339.838 571.714 428.105 578.11 437.059C578.11 437.059 587.065 534.281 592.182 536.839C597.298 539.398 621.604 540.677 622.883 535.56C624.162 530.443 615.208 420.429 611.37 411.475C607.532 402.52 606.253 269.48 597.298 270.759C588.344 272.038 500.077 268.201 500.077 268.201Z" fill="#2F2E41"/>
<path d="M515.428 87.829C531.677 87.829 544.85 74.6561 544.85 58.4066C544.85 42.1571 531.677 28.9843 515.428 28.9843C499.178 28.9843 486.005 42.1571 486.005 58.4066C486.005 74.6561 499.178 87.829 515.428 87.829Z" fill="#A0616A"/>
<path d="M526.941 123.647L520.545 112.134C520.545 112.134 512.869 101.901 509.031 104.459C505.194 107.017 505.194 115.972 505.194 115.972C505.194 115.972 475.771 126.206 478.33 140.277C480.888 154.349 497.518 178.654 497.518 178.654C497.518 178.654 500.077 199.122 497.518 204.239C494.96 209.356 489.843 213.194 493.681 218.311C497.518 223.428 498.798 224.707 497.518 231.103C496.239 237.499 493.681 240.058 496.239 242.616C498.798 245.175 494.96 272.038 492.401 273.318C489.843 274.597 574.272 287.389 580.668 283.551C587.065 279.714 604.974 279.714 603.695 275.876C602.415 272.038 597.298 249.012 597.298 245.175C597.298 241.337 597.298 224.707 596.019 223.428C594.74 222.148 597.298 202.96 597.298 202.96L590.902 149.232L611.37 117.251C611.37 117.251 606.253 99.3421 581.948 96.7836C557.642 94.2252 550.919 87.829 550.919 87.829C550.919 87.829 548.688 99.3421 543.571 101.901C538.454 104.459 526.941 123.647 526.941 123.647Z" fill="#575A89"/>
<path d="M620.325 158.187L628 215.752L611.37 298.902C611.37 298.902 604.974 346.234 592.182 344.955C579.389 343.675 592.182 293.785 592.182 293.785L602.415 215.752C602.415 215.752 585.785 176.096 589.623 170.979C593.461 165.862 620.325 158.187 620.325 158.187Z" fill="#A0616A"/>
<path d="M557.642 540.677C557.642 540.677 541.012 531.722 537.175 533.002C533.337 534.281 529.499 552.19 529.499 552.19C529.499 552.19 500.077 573.937 519.265 579.054C538.454 584.171 546.129 572.658 546.129 572.658C546.129 572.658 565.318 562.424 565.318 559.866C565.318 557.307 562.759 540.677 562.759 540.677H557.642Z" fill="#2F2E41"/>
<path d="M596.019 534.281C596.019 534.281 588.344 576.496 593.461 579.054C598.578 581.612 620.325 585.45 622.883 579.054C625.442 572.658 625.442 557.307 624.162 552.19C622.883 547.073 619.045 534.281 619.045 534.281H596.019Z" fill="#2F2E41"/>
<path d="M598.578 112.134L611.37 117.251C611.37 117.251 628 170.979 624.162 170.979C620.325 170.979 585.785 179.934 585.785 176.096C585.785 172.258 588.344 112.134 598.578 112.134Z" fill="#575A89"/>
<path d="M396 3H0V133H15V167L49 133H396V3Z" fill="#3F3D56"/>
<path d="M396 353H0V483H15V517L49 483H396V353Z" fill="#3F3D56"/>
<path d="M70 179H466V309H451V343L417 309H70V179Z" fill="#3F3D56"/>
<path opacity="0.3" d="M350 24.5003H46V36.5003H350V24.5003Z" fill="#69AF70"/>
<path opacity="0.3" d="M198 47.5003H46V59.5003H198V47.5003Z" fill="#69AF70"/>
<path opacity="0.3" d="M63 111.5C72.3888 111.5 80 103.889 80 94.5003C80 85.1115 72.3888 77.5003 63 77.5003C53.6112 77.5003 46 85.1115 46 94.5003C46 103.889 53.6112 111.5 63 111.5Z" fill="#69AF70"/>
<path d="M410 198.5H106V210.5H410V198.5Z" fill="#71BC78"/>
<path d="M258 221.5H106V233.5H258V221.5Z" fill="#71BC78"/>
<path d="M123 285.5C132.389 285.5 140 277.889 140 268.5C140 259.111 132.389 251.5 123 251.5C113.611 251.5 106 259.111 106 268.5C106 277.889 113.611 285.5 123 285.5Z" fill="#71BC78"/>
<path d="M488.057 65.8825C488.057 65.8825 483.433 62.3777 482.775 57.0306C482.435 53.9824 481.651 50.9944 480.45 48.1664C480.167 43.4298 480.248 38.6854 480.695 33.9776C481.458 28.645 479.637 27.1796 486.629 23.0384C493.622 18.8971 486.875 9.9133 510.637 13.635C511.655 14.3548 512.852 14.7537 514.077 14.7814C515.302 14.8091 516.5 14.4643 517.519 13.7905C521.314 11.4783 524.93 16.8131 524.93 16.8131C524.93 16.8131 527.061 14.1753 528.939 16.152C530.817 18.1287 536.747 11.7135 542.518 27.5703C548.29 43.4271 545.141 60.6138 545.141 60.6138C545.141 60.6138 536.041 33.7192 521.526 35.9431C507.01 38.167 489.59 35.5952 489.741 46.9796C489.902 53.3416 489.337 59.6856 488.057 65.8825Z" fill="#2F2E41"/>
<path opacity="0.3" d="M350 374.5H46V386.5H350V374.5Z" fill="#69AF70"/>
<path opacity="0.3" d="M198 397.5H46V409.5H198V397.5Z" fill="#69AF70"/>
<path opacity="0.3" d="M63 461.5C72.3888 461.5 80 453.889 80 444.5C80 435.112 72.3888 427.5 63 427.5C53.6112 427.5 46 435.112 46 444.5C46 453.889 53.6112 461.5 63 461.5Z" fill="#69AF70"/>
</svg>
