<svg viewBox="0 0 1127 855" fill="none" xmlns="http://www.w3.org/2000/svg">
<g id="undraw_code_review_l1q9 1">
<g id="screen">
<path id="Vector" d="M990.635 87H238.635V677H990.635V87Z" fill="#3F3D56"/>
<path id="Vector_2" d="M606.08 167.629H420.562C420.266 167.63 419.973 167.572 419.699 167.459C419.425 167.346 419.177 167.181 418.967 166.971C418.758 166.762 418.591 166.514 418.478 166.24C418.364 165.967 418.306 165.674 418.306 165.378C418.306 165.082 418.364 164.789 418.478 164.515C418.591 164.242 418.758 163.993 418.967 163.784C419.177 163.575 419.425 163.409 419.699 163.296C419.973 163.183 420.266 163.126 420.562 163.126H606.08C606.676 163.128 607.248 163.365 607.669 163.787C608.09 164.209 608.327 164.781 608.327 165.378C608.327 165.974 608.09 166.546 607.669 166.968C607.248 167.39 606.676 167.628 606.08 167.629V167.629Z" fill="#F2F2F2"/>
<path id="Vector_3" d="M809.159 192.395H517.374C516.776 192.395 516.204 192.158 515.782 191.735C515.359 191.313 515.122 190.741 515.122 190.143C515.122 189.546 515.359 188.974 515.782 188.551C516.204 188.129 516.776 187.892 517.374 187.892H809.159C809.454 187.892 809.747 187.95 810.02 188.063C810.294 188.177 810.542 188.342 810.751 188.551C810.96 188.76 811.126 189.009 811.239 189.282C811.352 189.555 811.41 189.848 811.41 190.143C811.41 190.439 811.352 190.732 811.239 191.005C811.126 191.278 810.96 191.526 810.751 191.735C810.542 191.945 810.294 192.11 810.02 192.223C809.747 192.337 809.454 192.395 809.159 192.395V192.395Z" fill="#F2F2F2"/>
<path id="Vector_4" d="M606.98 217.161H421.463C420.866 217.161 420.293 216.923 419.871 216.501C419.449 216.079 419.211 215.506 419.211 214.909C419.211 214.312 419.449 213.739 419.871 213.317C420.293 212.895 420.866 212.658 421.463 212.658H606.98C607.578 212.658 608.15 212.895 608.572 213.317C608.995 213.739 609.232 214.312 609.232 214.909C609.232 215.506 608.995 216.079 608.572 216.501C608.15 216.923 607.578 217.161 606.98 217.161V217.161Z" fill="#F2F2F2"/>
<path id="Vector_5" d="M809.159 217.611H623.641C623.044 217.611 622.471 217.374 622.049 216.951C621.627 216.529 621.39 215.957 621.39 215.359C621.39 214.762 621.627 214.19 622.049 213.767C622.471 213.345 623.044 213.108 623.641 213.108H809.159C809.756 213.108 810.329 213.345 810.751 213.767C811.173 214.19 811.41 214.762 811.41 215.359C811.41 215.957 811.173 216.529 810.751 216.951C810.329 217.374 809.756 217.611 809.159 217.611V217.611Z" fill="#F2F2F2"/>
<path id="Vector_6" d="M607.431 241.926H421.913C421.316 241.926 420.743 241.689 420.321 241.267C419.899 240.845 419.662 240.272 419.662 239.675C419.662 239.078 419.899 238.505 420.321 238.083C420.743 237.661 421.316 237.423 421.913 237.423H607.431C608.028 237.423 608.601 237.661 609.023 238.083C609.445 238.505 609.682 239.078 609.682 239.675C609.682 240.272 609.445 240.845 609.023 241.267C608.601 241.689 608.028 241.926 607.431 241.926V241.926Z" fill="#F2F2F2"/>
<path id="Vector_7" d="M607.881 266.692H422.363C421.766 266.692 421.194 266.455 420.771 266.033C420.349 265.61 420.112 265.038 420.112 264.441C420.112 263.843 420.349 263.271 420.771 262.849C421.194 262.426 421.766 262.189 422.363 262.189H607.881C608.478 262.189 609.051 262.426 609.473 262.849C609.895 263.271 610.132 263.843 610.132 264.441C610.132 265.038 609.895 265.61 609.473 266.033C609.051 266.455 608.478 266.692 607.881 266.692V266.692Z" fill="#F2F2F2"/>
<path id="Vector_8" d="M692.084 168.079H638.951C638.354 168.079 637.781 167.842 637.359 167.42C636.936 166.998 636.699 166.425 636.699 165.828C636.699 165.231 636.936 164.658 637.359 164.236C637.781 163.814 638.354 163.577 638.951 163.577H692.084C692.682 163.577 693.254 163.814 693.676 164.236C694.099 164.658 694.336 165.231 694.336 165.828C694.336 166.425 694.099 166.998 693.676 167.42C693.254 167.842 692.682 168.079 692.084 168.079V168.079Z" fill="#F2F2F2"/>
<path id="Vector_9" d="M692.084 241.926H638.951C638.354 241.926 637.781 241.689 637.359 241.267C636.936 240.845 636.699 240.272 636.699 239.675C636.699 239.078 636.936 238.505 637.359 238.083C637.781 237.661 638.354 237.423 638.951 237.423H692.084C692.682 237.423 693.254 237.661 693.676 238.083C694.099 238.505 694.336 239.078 694.336 239.675C694.336 240.272 694.099 240.845 693.676 241.267C693.254 241.689 692.682 241.926 692.084 241.926V241.926Z" fill="#F2F2F2"/>
<path id="Vector_10" d="M692.084 266.242H638.951C638.655 266.242 638.361 266.185 638.088 266.072C637.814 265.959 637.565 265.793 637.356 265.584C637.146 265.375 636.98 265.126 636.866 264.853C636.753 264.58 636.695 264.286 636.695 263.99C636.695 263.694 636.753 263.401 636.866 263.128C636.98 262.854 637.146 262.606 637.356 262.397C637.565 262.187 637.814 262.022 638.088 261.909C638.361 261.796 638.655 261.738 638.951 261.739H692.084C692.38 261.738 692.674 261.796 692.947 261.909C693.221 262.022 693.47 262.187 693.68 262.397C693.889 262.606 694.055 262.854 694.169 263.128C694.282 263.401 694.341 263.694 694.341 263.99C694.341 264.286 694.282 264.58 694.169 264.853C694.055 265.126 693.889 265.375 693.68 265.584C693.47 265.793 693.221 265.959 692.947 266.072C692.674 266.185 692.38 266.242 692.084 266.242V266.242Z" fill="#F2F2F2"/>
<path id="Vector_11" d="M781.241 266.242H728.107C727.511 266.24 726.94 266.003 726.518 265.581C726.097 265.159 725.861 264.587 725.861 263.99C725.861 263.394 726.097 262.822 726.518 262.4C726.94 261.978 727.511 261.74 728.107 261.739H781.241C781.537 261.738 781.83 261.796 782.104 261.909C782.378 262.022 782.626 262.187 782.836 262.397C783.046 262.606 783.212 262.854 783.325 263.128C783.439 263.401 783.497 263.694 783.497 263.99C783.497 264.286 783.439 264.58 783.325 264.853C783.212 265.126 783.046 265.375 782.836 265.584C782.626 265.793 782.378 265.959 782.104 266.072C781.83 266.185 781.537 266.242 781.241 266.242V266.242Z" fill="#F2F2F2"/>
<path id="Vector_12" d="M473.246 192.395H420.112C419.515 192.395 418.942 192.158 418.52 191.735C418.098 191.313 417.86 190.741 417.86 190.143C417.86 189.546 418.098 188.974 418.52 188.551C418.942 188.129 419.515 187.892 420.112 187.892H473.246C473.843 187.892 474.415 188.129 474.838 188.551C475.26 188.974 475.497 189.546 475.497 190.143C475.497 190.741 475.26 191.313 474.838 191.735C474.415 192.158 473.843 192.395 473.246 192.395V192.395Z" fill="#F2F2F2"/>
<path id="Vector_13" d="M606.305 532.361H420.787C420.19 532.361 419.618 532.123 419.195 531.701C418.773 531.279 418.536 530.706 418.536 530.109C418.536 529.512 418.773 528.939 419.195 528.517C419.618 528.095 420.19 527.858 420.787 527.858H606.305C606.902 527.858 607.475 528.095 607.897 528.517C608.319 528.939 608.556 529.512 608.556 530.109C608.556 530.706 608.319 531.279 607.897 531.701C607.475 532.123 606.902 532.361 606.305 532.361Z" fill="#F2F2F2"/>
<path id="Vector_14" d="M605.404 581.892H419.887C419.29 581.892 418.717 581.655 418.295 581.233C417.873 580.81 417.635 580.238 417.635 579.641C417.635 579.043 417.873 578.471 418.295 578.049C418.717 577.626 419.29 577.389 419.887 577.389H605.404C606.002 577.389 606.574 577.626 606.996 578.049C607.419 578.471 607.656 579.043 607.656 579.641C607.656 580.238 607.419 580.81 606.996 581.233C606.574 581.655 606.002 581.892 605.404 581.892Z" fill="#F2F2F2"/>
<path id="Vector_15" d="M605.855 606.658H420.337C420.041 606.658 419.748 606.601 419.474 606.488C419.2 606.375 418.952 606.209 418.742 606C418.532 605.791 418.366 605.542 418.253 605.269C418.139 604.996 418.081 604.702 418.081 604.406C418.081 604.11 418.139 603.817 418.253 603.544C418.366 603.27 418.532 603.022 418.742 602.813C418.952 602.604 419.2 602.438 419.474 602.325C419.748 602.212 420.041 602.154 420.337 602.155H605.855C606.151 602.154 606.444 602.212 606.718 602.325C606.992 602.438 607.24 602.604 607.45 602.813C607.659 603.022 607.826 603.27 607.939 603.544C608.052 603.817 608.111 604.11 608.111 604.406C608.111 604.702 608.052 604.996 607.939 605.269C607.826 605.542 607.659 605.791 607.45 606C607.24 606.209 606.992 606.375 606.718 606.488C606.444 606.601 606.151 606.658 605.855 606.658V606.658Z" fill="#F2F2F2"/>
<path id="Vector_16" d="M685.105 582.342H631.971C631.374 582.342 630.801 582.105 630.379 581.683C629.957 581.261 629.72 580.688 629.72 580.091C629.72 579.494 629.957 578.921 630.379 578.499C630.801 578.077 631.374 577.839 631.971 577.839H685.105C685.702 577.839 686.275 578.077 686.697 578.499C687.119 578.921 687.356 579.494 687.356 580.091C687.356 580.688 687.119 581.261 686.697 581.683C686.275 582.105 685.702 582.342 685.105 582.342Z" fill="#F2F2F2"/>
<path id="Vector_17" d="M685.105 606.658H631.971C631.374 606.658 630.801 606.421 630.379 605.998C629.957 605.576 629.72 605.003 629.72 604.406C629.72 603.809 629.957 603.236 630.379 602.814C630.801 602.392 631.374 602.155 631.971 602.155H685.105C685.702 602.155 686.275 602.392 686.697 602.814C687.119 603.236 687.356 603.809 687.356 604.406C687.356 605.003 687.119 605.576 686.697 605.998C686.275 606.421 685.702 606.658 685.105 606.658V606.658Z" fill="#F2F2F2"/>
<path id="Vector_18" d="M774.262 582.342H721.128C720.531 582.342 719.958 582.105 719.536 581.683C719.114 581.261 718.876 580.688 718.876 580.091C718.876 579.494 719.114 578.921 719.536 578.499C719.958 578.077 720.531 577.839 721.128 577.839H774.262C774.859 577.839 775.431 578.077 775.854 578.499C776.276 578.921 776.513 579.494 776.513 580.091C776.513 580.688 776.276 581.261 775.854 581.683C775.431 582.105 774.859 582.342 774.262 582.342V582.342Z" fill="#F2F2F2"/>
<path id="Vector_19" d="M809.384 557.126H517.599C517.002 557.126 516.429 556.889 516.007 556.467C515.585 556.045 515.347 555.472 515.347 554.875C515.347 554.278 515.585 553.705 516.007 553.283C516.429 552.861 517.002 552.623 517.599 552.623H809.384C809.981 552.623 810.554 552.861 810.976 553.283C811.398 553.705 811.635 554.278 811.635 554.875C811.635 555.472 811.398 556.045 810.976 556.467C810.554 556.889 809.981 557.126 809.384 557.126V557.126Z" fill="#F2F2F2"/>
<path id="Vector_20" d="M473.471 557.126H420.337C419.74 557.126 419.167 556.889 418.745 556.467C418.323 556.045 418.086 555.472 418.086 554.875C418.086 554.278 418.323 553.705 418.745 553.283C419.167 552.861 419.74 552.623 420.337 552.623H473.471C474.068 552.623 474.641 552.861 475.063 553.283C475.485 553.705 475.722 554.278 475.722 554.875C475.722 555.472 475.485 556.045 475.063 556.467C474.641 556.889 474.068 557.126 473.471 557.126V557.126Z" fill="#F2F2F2"/>
<path id="Vector_21" d="M809.384 631.874H517.599C517.303 631.874 517.009 631.817 516.736 631.704C516.462 631.591 516.213 631.425 516.004 631.216C515.794 631.007 515.628 630.758 515.514 630.485C515.401 630.212 515.343 629.918 515.343 629.622C515.343 629.326 515.401 629.033 515.514 628.76C515.628 628.486 515.794 628.238 516.004 628.029C516.213 627.82 516.462 627.654 516.736 627.541C517.009 627.428 517.303 627.37 517.599 627.371H809.384C809.981 627.371 810.554 627.608 810.976 628.03C811.398 628.453 811.635 629.025 811.635 629.622C811.635 630.219 811.398 630.792 810.976 631.214C810.554 631.637 809.981 631.874 809.384 631.874V631.874Z" fill="#F2F2F2"/>
<path id="Vector_22" d="M473.471 631.874H420.337C420.041 631.874 419.748 631.817 419.474 631.704C419.2 631.591 418.952 631.425 418.742 631.216C418.532 631.007 418.366 630.758 418.253 630.485C418.139 630.212 418.081 629.918 418.081 629.622C418.081 629.326 418.139 629.033 418.253 628.76C418.366 628.486 418.532 628.238 418.742 628.029C418.952 627.82 419.2 627.654 419.474 627.541C419.748 627.428 420.041 627.37 420.337 627.371H473.471C473.767 627.37 474.06 627.428 474.334 627.541C474.607 627.654 474.856 627.82 475.066 628.029C475.275 628.238 475.442 628.486 475.555 628.76C475.669 629.033 475.727 629.326 475.727 629.622C475.727 629.918 475.669 630.212 475.555 630.485C475.442 630.758 475.275 631.007 475.066 631.216C474.856 631.425 474.607 631.591 474.334 631.704C474.06 631.817 473.767 631.874 473.471 631.874Z" fill="#F2F2F2"/>
<path id="Vector_23" d="M258.635 111C263.606 111 267.635 106.971 267.635 102C267.635 97.0294 263.606 93 258.635 93C253.665 93 249.635 97.0294 249.635 102C249.635 106.971 253.665 111 258.635 111Z" fill="#71BC78"/>
<path id="Vector_24" d="M282.635 111C287.606 111 291.635 106.971 291.635 102C291.635 97.0294 287.606 93 282.635 93C277.665 93 273.635 97.0294 273.635 102C273.635 106.971 277.665 111 282.635 111Z" fill="#71BC78"/>
<path id="Vector_25" d="M306.635 111C311.606 111 315.635 106.971 315.635 102C315.635 97.0294 311.606 93 306.635 93C301.665 93 297.635 97.0294 297.635 102C297.635 106.971 301.665 111 306.635 111Z" fill="#71BC78"/>
<path id="Vector_26" opacity="0.1" d="M990.635 117H238.635V120H990.635V117Z" fill="black"/>
</g>
<g id="arrow-left">
<path id="Vector_27" d="M561.502 326.13L489.456 397.275L561.502 468.42L577.712 452.21L523.228 397.725L578.162 342.79L561.502 326.13Z" fill="#71BC78"/>
</g>
<g id="arrow_right">
<path id="Vector_28" d="M667.769 326.13L739.815 397.275L667.769 468.42L651.559 452.21L706.044 397.725L651.109 342.79L667.769 326.13Z" fill="#71BC78"/>
</g>
<g id="person">
<path id="Vector_29" d="M165.063 676.091C162.465 677.538 159.725 678.712 156.885 679.594C151.806 680.981 146.378 680.472 141.248 681.657C139.148 682.142 136.862 683.156 136.194 685.205C135.704 686.709 136.237 688.332 136.747 689.829C142.416 706.448 145.833 724.095 154.873 739.149C158.672 745.472 163.387 751.197 168.865 756.137C170.92 757.989 173.249 759.801 176.001 760.092C177.269 760.226 178.549 760.023 179.714 759.503C180.878 758.984 181.885 758.167 182.633 757.134C183.381 756.101 183.842 754.889 183.972 753.621C184.102 752.352 183.894 751.072 183.371 749.91C182.561 748.108 181.054 746.713 180.082 744.994C179.028 742.804 178.411 740.429 178.263 738.003C177.37 730.895 176.509 723.466 178.972 716.738C180.624 712.226 183.654 708.379 186.179 704.291C188.703 700.202 190.8 695.519 190.239 690.747C189.855 687.49 188.267 684.51 186.589 681.693C184.907 678.87 181.584 671.284 178.206 670.342C174.699 669.364 168.122 674.524 165.063 676.091Z" fill="#2F2E41"/>
<path id="Vector_30" d="M257.498 733.5C257.551 735.108 257.327 736.713 256.835 738.245C255.778 741.038 253.154 742.951 251.799 745.612C249.914 749.313 250.768 753.786 252.017 757.747C252.8 760.23 253.827 762.814 255.93 764.35C257.728 765.464 259.772 766.119 261.883 766.257C279.92 768.753 298.241 767.321 316.442 767.844C319.759 767.939 323.271 768.055 326.167 766.434C329.063 764.813 330.853 760.737 328.884 758.066C327.115 755.668 323.618 755.69 320.642 755.549C312.89 755.155 305.508 752.114 299.729 746.934C298.589 745.96 297.6 744.822 296.795 743.557C296.176 742.435 295.663 741.257 295.261 740.04C292.709 733.128 289.674 726.406 286.177 719.921C285.199 718.106 284.09 716.216 282.271 715.245C280.94 714.639 279.495 714.324 278.032 714.319C273.496 714.025 261.749 712.481 258.241 716.009C255 719.268 257.57 729.36 257.498 733.5Z" fill="#2F2E41"/>
<path id="Vector_31" d="M285.413 330.695C301.415 330.695 314.388 317.723 314.388 301.72C314.388 285.718 301.415 272.745 285.413 272.745C269.41 272.745 256.438 285.718 256.438 301.72C256.438 317.723 269.41 330.695 285.413 330.695Z" fill="#A0616A"/>
<path id="Vector_32" d="M259.248 325.646C257.524 330.26 254.601 334.593 250.347 337.076L290.422 345.25C288.968 339.402 288.777 333.31 289.86 327.381C290.258 325.946 290.339 324.442 290.1 322.972C289.346 320.065 286.073 318.666 283.145 317.998C275.831 316.331 269.363 315.437 262.566 312.206C260.488 315.763 260.779 321.545 259.248 325.646Z" fill="#A0616A"/>
<path id="Vector_33" d="M250.012 326.227C254.324 324.276 259.02 323.327 263.751 323.45C268.481 323.574 273.122 324.767 277.326 326.941C282.463 329.648 286.717 333.735 290.897 337.767C294.75 341.484 298.859 345.739 299.133 351.086C299.265 353.676 298.457 356.208 298.049 358.769C297.315 364.066 298.248 369.459 300.717 374.202C303.186 378.945 307.069 382.802 311.829 385.239C315.012 390.542 315.67 396.968 315.718 403.153C315.903 426.589 308.509 450.314 313.788 473.148C315.027 478.51 316.95 483.702 318.02 489.1C319.407 496.091 319.339 503.279 320.064 510.369C320.851 518.047 322.568 525.601 325.177 532.865C323.433 535.639 319.804 536.702 316.535 536.478C313.266 536.253 310.21 534.834 307.293 533.342C293.17 526.115 280.234 516.585 265.606 510.442C255.929 506.379 245.619 503.847 236.23 499.154C226.842 494.461 218.11 487.012 215.24 476.916C213.999 472.551 213.922 467.951 213.854 463.413C213.569 444.299 213.304 424.977 217.464 406.319C221.133 389.866 228.206 374.125 229.749 357.338C230.251 351.874 230.262 346.025 233.315 341.465C237.63 335.02 246.947 333.351 250.012 326.227Z" fill="#2F2E41"/>
<path id="Vector_34" d="M268.933 302.129C270.641 299.903 273.934 299.599 276.661 300.258C279.389 300.916 281.904 302.322 284.659 302.856C285.285 303.034 285.941 303.079 286.586 302.988C287.23 302.898 287.849 302.674 288.402 302.33C289.365 301.382 289.941 300.109 290.017 298.76C290.982 293.019 291.208 287.178 290.688 281.38C290.545 280.566 290.599 279.73 290.847 278.942C291.529 277.299 293.61 276.908 295.309 276.38C298.113 275.433 300.521 273.578 302.153 271.109C303.785 268.64 304.548 265.698 304.322 262.747C304.279 261.332 303.685 259.989 302.665 259.007C301.49 258.049 299.845 257.99 298.329 257.978C290.54 257.916 282.752 257.917 274.963 257.984C272.08 258.008 269.052 258.079 266.553 259.516C264.705 260.579 263.331 262.289 261.673 263.628C257.346 267.119 251.495 267.829 246.232 269.619C243.662 270.35 241.329 271.742 239.464 273.654C237.714 275.654 236.872 278.628 237.971 281.047C238.536 282.055 239.166 283.025 239.858 283.951C242.963 288.915 240.896 295.354 241.36 301.191C241.939 308.479 252.725 320.302 260.038 322.027C271.846 324.811 265.025 306.914 268.933 302.129Z" fill="#2F2E41"/>
<path id="Vector_35" d="M252.576 621.683C253.321 627.004 254.277 632.344 254.021 637.712C253.665 645.206 250.962 652.426 250.463 659.911C250.089 665.502 250.952 671.153 250.176 676.703C249.679 680.256 248.52 683.681 247.803 687.196C246.667 692.925 246.699 698.824 247.897 704.54C249.095 710.256 251.435 715.672 254.776 720.462C255.267 721.282 255.965 721.958 256.799 722.423C257.6 722.719 258.457 722.833 259.307 722.755C267.741 722.583 276.151 721.819 284.477 720.467C285.087 720.442 285.664 720.187 286.094 719.754C286.281 719.467 286.401 719.141 286.445 718.8C287.989 710.864 284.468 702.907 283.573 694.872C282.617 686.292 284.675 677.694 286.719 669.307C287.645 665.169 288.803 661.087 290.186 657.079C291.174 654.382 292.367 651.758 293.223 649.016C294.435 644.709 295.174 640.282 295.425 635.814C296.019 628.764 296.334 621.697 296.37 614.615C296.571 607.903 296.013 601.191 294.704 594.605C292.826 586.267 288.981 578.524 285.169 570.875C283.13 571.363 281.217 572.273 279.551 573.545C274.638 576.726 269.509 579.56 264.201 582.025C260.634 583.682 253.679 584.859 251.415 588.311C249.183 591.716 250.623 598.662 250.794 602.417C251.086 608.862 251.681 615.284 252.576 621.683Z" fill="#2F2E41"/>
<path id="Vector_36" opacity="0.1" d="M252.576 621.683C253.321 627.004 254.277 632.344 254.021 637.712C253.665 645.206 250.962 652.426 250.463 659.911C250.089 665.502 250.952 671.153 250.176 676.703C249.679 680.256 248.52 683.681 247.803 687.196C246.667 692.925 246.699 698.824 247.897 704.54C249.095 710.256 251.435 715.672 254.776 720.462C255.267 721.282 255.965 721.958 256.799 722.423C257.6 722.719 258.457 722.833 259.307 722.755C267.741 722.583 276.151 721.819 284.477 720.467C285.087 720.442 285.664 720.187 286.094 719.754C286.281 719.467 286.401 719.141 286.445 718.8C287.989 710.864 284.468 702.907 283.573 694.872C282.617 686.292 284.675 677.694 286.719 669.307C287.645 665.169 288.803 661.087 290.186 657.079C291.174 654.382 292.367 651.758 293.223 649.016C294.435 644.709 295.174 640.282 295.425 635.814C296.019 628.764 296.334 621.697 296.37 614.615C296.571 607.903 296.013 601.191 294.704 594.605C292.826 586.267 288.981 578.524 285.169 570.875C283.13 571.363 281.217 572.273 279.551 573.545C274.638 576.726 269.509 579.56 264.201 582.025C260.634 583.682 253.679 584.859 251.415 588.311C249.183 591.716 250.623 598.662 250.794 602.417C251.086 608.862 251.681 615.284 252.576 621.683Z" fill="black"/>
<path id="Vector_37" d="M213.403 508.018C209.555 518.377 215.211 529.572 220.125 539.47C232.231 563.856 240.638 589.878 248.999 615.787C249.626 617.728 250.252 619.846 249.553 621.762C248.95 623.123 247.971 624.284 246.732 625.109C240.966 629.488 233.625 631.047 226.757 633.338C220.119 635.554 213.763 638.534 207.814 642.218C202.837 645.302 198.175 648.862 193.522 652.416L178.71 663.728C177.751 664.376 176.913 665.188 176.235 666.125C174.806 668.366 175.391 671.292 176.102 673.853C177.986 680.634 180.411 687.253 183.354 693.645C183.839 695.047 184.761 696.255 185.984 697.092C188.296 698.334 191.124 696.687 192.89 694.745C194.655 692.803 196.182 690.386 198.671 689.552C201.156 688.719 203.892 689.728 206.488 689.363C210.687 688.774 213.475 684.906 216.501 681.937C228.866 669.805 249.511 670.686 263.114 659.96C265.08 658.2 267.161 656.574 269.345 655.092C271.644 653.733 274.252 652.987 276.638 651.785C283.894 648.131 288.456 640.577 290.9 632.828C293.344 625.08 294.041 616.901 295.797 608.968C296.705 604.867 297.9 600.81 298.304 596.629C298.563 592.741 298.479 588.837 298.051 584.963L293.143 524.248C292.743 519.304 292.343 514.355 291.567 509.457C276.99 509.978 262.424 510.565 247.839 510.737C236.233 510.874 224.415 511.686 213.403 508.018Z" fill="#2F2E41"/>
<path id="Vector_38" d="M208.044 522.221C210.022 525.401 214.834 525.335 218.149 523.592C221.463 521.848 224.037 518.919 227.359 517.191C231.823 514.868 237.105 514.955 242.135 515.097C250.099 515.322 258.16 515.562 265.822 517.744C273.747 520.001 281.462 524.347 289.656 523.48C291.082 523.329 292.641 522.921 293.417 521.715C293.872 520.841 294.086 519.863 294.037 518.879L294.305 511.72C294.469 510.482 294.271 509.223 293.735 508.095C293.047 507.156 292.105 506.434 291.019 506.015C279.356 500.369 266.055 499.318 253.104 498.874C246.521 498.649 239.935 498.556 233.347 498.596C227.756 498.63 221.044 497.821 215.608 499.315C208.313 501.32 204.343 516.269 208.044 522.221Z" fill="#2F2E41"/>
<path id="Vector_39" d="M281.281 334.726C265.999 334.59 252.15 324.503 236.869 324.257C235.023 324.13 233.173 324.449 231.477 325.188C229.347 326.26 227.947 328.334 226.33 330.086C221.812 334.979 215.269 337.591 210.627 342.367C206.274 346.845 203.854 353.517 205.572 359.52C207.291 365.524 213.776 370.129 219.851 368.685C222.299 360.762 227.351 353.898 234.188 349.206C237.746 346.924 241.495 344.956 245.393 343.324C252.261 340.212 259.941 337.041 267.111 339.374C269.756 340.372 272.249 341.732 274.52 343.414L286.474 351.444C285.081 345.95 283.829 339.788 281.281 334.726Z" fill="#71BC78"/>
<path id="Vector_40" d="M218.091 363.374C216.062 365.906 218.985 369.574 218.538 372.787C218.24 374.922 216.483 376.552 215.752 378.58C214.994 380.681 215.396 383.007 215.108 385.222C214.82 386.832 214.393 388.414 213.833 389.951C212.546 394.543 211.647 399.235 211.147 403.977L208.472 423.953C208.008 426.959 207.725 429.99 207.626 433.03C207.761 435.303 207.609 437.583 207.174 439.817C206.581 442 205.27 443.91 204.387 445.993C203.505 448.075 203.096 450.595 204.288 452.517C200.297 455.842 199.11 462.371 201.901 466.752C202.432 467.435 202.848 468.2 203.131 469.017C203.285 470.16 203.097 471.322 202.589 472.357L199.884 479.564C199.192 481.409 198.973 484.217 200.898 484.638C199.304 486.294 198.061 488.256 197.247 490.405C196.851 491.484 196.733 492.645 196.903 493.782C197.073 494.919 197.525 495.994 198.219 496.911C198.891 497.5 199.463 498.195 199.913 498.967C200.178 500.043 200.11 501.174 199.718 502.21C199.313 503.784 199.235 505.424 199.489 507.029C199.742 508.634 200.321 510.171 201.191 511.544C202.092 512.898 203.368 513.96 204.863 514.601C206.358 515.242 208.007 515.434 209.609 515.152C215.02 513.932 219.881 512.005 225.337 513.006C237.083 515.162 248.866 517.326 260.243 520.958C273.227 525.104 285.799 531.183 299.369 532.459C300.261 532.642 301.19 532.497 301.985 532.052C302.677 531.397 303.107 530.513 303.195 529.564C304.593 523.009 305.991 516.454 307.389 509.899C309.079 502.634 310.366 495.28 311.245 487.872C311.722 483.091 311.858 478.283 311.994 473.479L313.075 435.248C313.581 429.614 312.83 423.937 310.875 418.629L304.657 398.781C301.109 387.454 292.97 377.409 290.071 365.899C288.237 358.614 286.882 350.796 281.964 345.118C274.951 337.023 262.819 335.764 252.2 337.156C247.403 337.784 242.564 338.87 238.415 341.357C233.616 344.234 230.082 348.766 226.662 353.194C223.843 356.843 220.975 359.776 218.091 363.374Z" fill="#71BC78"/>
<path id="Vector_41" d="M242.886 475.823C243.761 479.596 245.598 483.075 246.723 486.78C248.607 492.989 248.447 499.676 250.328 505.886C251.117 508.492 252.261 510.995 252.828 513.659C254.148 519.869 252.22 526.294 249.824 532.174C247.428 538.055 244.511 543.852 243.733 550.154C243.185 554.592 243.972 559.604 247.393 562.485C250.945 565.475 256.106 565.272 260.732 564.874C262.393 564.828 264.032 564.487 265.573 563.866C269.111 562.193 270.601 558.007 271.428 554.181C274.199 541.362 273.407 528.075 272.602 514.985L270.496 480.75C270.09 474.16 269.656 467.432 267.625 461.104C266.886 458.802 265.599 454.15 263.496 452.68C261.413 451.225 255.466 451.16 252.887 451.039C240.79 450.47 240.925 467.356 242.886 475.823Z" fill="#A0616A"/>
<path id="Vector_42" d="M256.29 349.423C253.819 348.13 250.706 348.687 248.318 350.128C246.012 351.707 243.993 353.668 242.346 355.926C237.007 362.443 231.355 369.921 232.147 378.308C232.444 381.453 233.648 384.429 234.465 387.48C238.044 400.86 234.086 415.01 234.54 428.853C234.803 436.852 236.543 444.72 238.276 452.533C238.63 454.127 239.197 455.973 240.739 456.51C241.898 456.913 243.15 456.395 244.296 455.959C248.569 454.38 253.159 453.853 257.678 454.423C262.197 454.992 266.512 456.641 270.26 459.231C273.125 457.702 272.051 452.868 271.409 449.685C269.5 440.228 272.091 430.471 275.237 421.35C278.383 412.229 282.148 403.12 282.669 393.485C283.259 382.569 279.64 371.915 276.069 361.582C275.29 359.327 274.438 356.962 272.63 355.404C271.083 354.254 269.31 353.443 267.427 353.027C263.634 351.906 259.794 351.258 256.29 349.423Z" fill="#2F2E41"/>
</g>
</g>
</svg>
