<svg viewBox="0 0 859 729" fill="none" xmlns="http://www.w3.org/2000/svg">
<path d="M496.98 699.81V707.63H265.72V701.28C279.823 696.055 292.059 686.763 300.878 674.581C309.697 662.398 314.704 647.873 315.264 632.843C315.824 617.814 311.912 602.957 304.024 590.152C296.135 577.347 284.625 567.17 270.95 560.91H495.44C485.124 565.645 475.998 572.627 468.731 581.346C461.464 590.065 456.239 600.3 453.44 611.3C449.679 626.109 450.469 641.707 455.706 656.06C460.944 670.413 470.386 682.854 482.8 691.76C487.225 694.944 491.979 697.642 496.98 699.81V699.81Z" fill="#C8CAD7"/>
<path opacity="0.1" d="M495.44 560.91C485.124 565.645 475.998 572.627 468.731 581.346C461.464 590.065 456.239 600.3 453.44 611.3H312.97C310.171 600.3 304.946 590.065 297.679 581.346C290.412 572.627 281.286 565.645 270.97 560.91H495.44Z" fill="black"/>
<path d="M0.919983 521.07V564.97C0.919983 589.21 18.66 608.86 40.55 608.86H720.93C742.82 608.86 760.56 589.21 760.56 564.97V521.07H0.919983Z" fill="#C8CAD7"/>
<path opacity="0.1" d="M496.98 699.81V707.63H265.72V701.28C272.063 698.921 278.062 695.726 283.56 691.78H482.8C487.225 694.957 491.979 697.649 496.98 699.81V699.81Z" fill="black"/>
<path d="M563.89 694.22H198.8C193.553 694.22 189.3 698.473 189.3 703.72V707.89C189.3 713.137 193.553 717.39 198.8 717.39H563.89C569.137 717.39 573.39 713.137 573.39 707.89V703.72C573.39 698.473 569.137 694.22 563.89 694.22Z" fill="#C8CAD7"/>
<path d="M760.56 40.04C760.56 29.5295 756.385 19.4494 748.953 12.0174C741.521 4.5853 731.441 0.410004 720.93 0.410004H40.55C30.0395 0.410004 19.9594 4.5853 12.5273 12.0174C5.09528 19.4494 0.919983 29.5295 0.919983 40.04V529.61H760.56V40.04Z" fill="#474157"/>
<path d="M739.83 57.76V478.39C739.831 480.952 739.328 483.49 738.348 485.858C737.368 488.225 735.931 490.377 734.119 492.189C732.307 494.001 730.155 495.438 727.788 496.418C725.42 497.398 722.882 497.901 720.32 497.9H41.15C38.5876 497.901 36.05 497.398 33.6823 496.418C31.3147 495.438 29.1634 494.001 27.3514 492.189C25.5395 490.377 24.1025 488.225 23.1225 485.858C22.1425 483.49 21.6387 480.952 21.64 478.39V57.76C21.64 52.5856 23.6955 47.6232 27.3544 43.9643C31.0132 40.3055 35.9757 38.25 41.15 38.25H720.32C725.494 38.25 730.457 40.3055 734.116 43.9643C737.774 47.6232 739.83 52.5856 739.83 57.76V57.76Z" fill="#F4F4F7"/>
<path d="M380.74 28.47C385.793 28.47 389.89 24.3734 389.89 19.32C389.89 14.2666 385.793 10.17 380.74 10.17C375.687 10.17 371.59 14.2666 371.59 19.32C371.59 24.3734 375.687 28.47 380.74 28.47Z" fill="white"/>
<path d="M380.74 589.36C393.2 589.36 403.3 579.26 403.3 566.8C403.3 554.34 393.2 544.24 380.74 544.24C368.28 544.24 358.18 554.34 358.18 566.8C358.18 579.26 368.28 589.36 380.74 589.36Z" fill="white"/>
<path d="M739.83 57.76H21.65C21.6487 55.1984 22.1521 52.6616 23.1315 50.2946C24.1109 47.9276 25.547 45.7768 27.3579 43.965C29.1688 42.1532 31.3189 40.7159 33.6854 39.7353C36.0519 38.7547 38.5884 38.25 41.15 38.25H720.32C722.882 38.2487 725.42 38.7524 727.788 39.7324C730.155 40.7124 732.307 42.1495 734.119 43.9614C735.931 45.7733 737.368 47.9246 738.348 50.2923C739.328 52.6599 739.831 55.1975 739.83 57.76V57.76Z" fill="white"/>
<path d="M41.15 52.85C43.8452 52.85 46.03 50.6652 46.03 47.97C46.03 45.2749 43.8452 43.09 41.15 43.09C38.4549 43.09 36.27 45.2749 36.27 47.97C36.27 50.6652 38.4549 52.85 41.15 52.85Z" fill="#EDEDF4"/>
<path d="M55.78 52.85C58.4752 52.85 60.66 50.6652 60.66 47.97C60.66 45.2749 58.4752 43.09 55.78 43.09C53.0849 43.09 50.9 45.2749 50.9 47.97C50.9 50.6652 53.0849 52.85 55.78 52.85Z" fill="#EDEDF4"/>
<path d="M70.42 52.85C73.1151 52.85 75.3 50.6652 75.3 47.97C75.3 45.2749 73.1151 43.09 70.42 43.09C67.7248 43.09 65.54 45.2749 65.54 47.97C65.54 50.6652 67.7248 52.85 70.42 52.85Z" fill="#EDEDF4"/>
<path d="M668.88 111.76H89.26V450.48H668.88V111.76Z" fill="white"/>
<path d="M188.29 397.99H209.66V401.99H188.29V397.99ZM198.98 387.3C199.361 387.298 199.737 387.214 200.082 387.054C200.428 386.895 200.736 386.663 200.985 386.375C201.234 386.087 201.418 385.749 201.525 385.383C201.633 385.018 201.661 384.634 201.607 384.257C201.554 383.88 201.421 383.518 201.217 383.197C201.012 382.876 200.741 382.602 200.422 382.394C200.104 382.186 199.744 382.048 199.367 381.991C198.991 381.933 198.607 381.957 198.24 382.06L192.67 377.99L192.34 378.29L196.42 383.85C196.347 384.104 196.31 384.366 196.31 384.63C196.309 384.981 196.377 385.329 196.511 385.653C196.644 385.978 196.841 386.273 197.089 386.521C197.337 386.769 197.632 386.966 197.957 387.099C198.281 387.233 198.629 387.301 198.98 387.3V387.3Z" fill="#65617D"/>
<path d="M198.98 367.26C195.726 367.26 192.537 368.175 189.777 369.899C187.017 371.624 184.797 374.089 183.37 377.014C181.943 379.938 181.366 383.205 181.706 386.442C182.045 389.679 183.287 392.755 185.29 395.32H190.2L190.54 394.98L192.38 393.14L190.44 391.23L188.6 393.06C186.942 391.038 185.92 388.572 185.66 385.97H188.26V383.29H185.66C185.92 380.689 186.942 378.222 188.6 376.2L190.44 378.03L192.35 376.12L190.52 374.28C192.542 372.623 195.009 371.6 197.61 371.34V373.94H200.28V371.34C202.884 371.602 205.353 372.625 207.38 374.28L205.54 376.12L207.46 378.03L209.3 376.2C210.953 378.224 211.976 380.69 212.24 383.29H209.63V385.97H212.24C211.976 388.57 210.953 391.036 209.3 393.06L207.46 391.23L205.54 393.14L207.39 394.98L207.72 395.32H212.63C214.632 392.756 215.874 389.68 216.214 386.445C216.554 383.209 215.978 379.943 214.552 377.018C213.127 374.094 210.908 371.628 208.15 369.903C205.391 368.178 202.204 367.262 198.95 367.26H198.98Z" fill="#65617D"/>
<path d="M198.97 294.42C197.727 294.367 196.508 294.058 195.39 293.51C195.289 293.462 195.176 293.442 195.065 293.452C194.953 293.461 194.846 293.499 194.754 293.563C194.662 293.627 194.588 293.714 194.54 293.815C194.492 293.916 194.471 294.028 194.48 294.14L194.77 298.4C194.776 298.459 194.797 298.515 194.832 298.563C194.866 298.61 194.913 298.648 194.967 298.671C195.021 298.695 195.081 298.703 195.139 298.696C195.198 298.689 195.253 298.666 195.3 298.63L196.51 297.71C196.546 297.684 196.588 297.666 196.631 297.656C196.675 297.646 196.72 297.646 196.764 297.654C196.808 297.663 196.85 297.68 196.887 297.705C196.924 297.73 196.956 297.762 196.98 297.8L198.69 300.48C198.72 300.525 198.761 300.563 198.809 300.588C198.857 300.614 198.911 300.628 198.965 300.628C199.019 300.628 199.073 300.614 199.121 300.588C199.169 300.563 199.21 300.525 199.24 300.48L200.96 297.8C200.988 297.765 201.023 297.735 201.063 297.714C201.103 297.693 201.146 297.68 201.191 297.676C201.236 297.672 201.282 297.678 201.324 297.692C201.367 297.707 201.407 297.73 201.44 297.76L202.65 298.68C202.697 298.716 202.752 298.739 202.811 298.746C202.869 298.753 202.929 298.745 202.983 298.721C203.037 298.698 203.084 298.66 203.118 298.613C203.153 298.565 203.174 298.509 203.18 298.45L203.47 294.19C203.476 294.079 203.453 293.969 203.405 293.869C203.356 293.77 203.282 293.684 203.191 293.621C203.1 293.558 202.994 293.519 202.883 293.508C202.773 293.498 202.662 293.515 202.56 293.56C201.442 294.106 200.223 294.415 198.98 294.47L198.97 294.42Z" fill="#65617D"/>
<path d="M210.8 283.69L206.8 279.59C206.8 266.4 199.02 260.59 199.02 260.59C199.02 260.59 191.16 266.44 191.16 279.59L187.16 283.69C187.085 283.767 187.029 283.861 186.996 283.963C186.963 284.065 186.954 284.174 186.97 284.28L188.51 293.61C188.522 293.72 188.562 293.826 188.626 293.916C188.691 294.006 188.778 294.078 188.879 294.125C188.98 294.171 189.091 294.19 189.202 294.181C189.312 294.171 189.419 294.133 189.51 294.07L195.12 290.27C196.197 291.264 197.586 291.855 199.05 291.94C200.492 291.865 201.86 291.272 202.9 290.27L208.5 294.07C208.591 294.133 208.698 294.171 208.808 294.181C208.919 294.19 209.03 294.171 209.131 294.125C209.232 294.078 209.319 294.006 209.384 293.916C209.448 293.826 209.488 293.72 209.5 293.61L211.05 284.27C211.054 284.161 211.034 284.052 210.991 283.952C210.948 283.851 210.882 283.762 210.8 283.69V283.69ZM199.01 275.25C198.475 275.274 197.945 275.137 197.489 274.857C197.032 274.577 196.67 274.167 196.449 273.679C196.228 273.191 196.158 272.649 196.248 272.121C196.339 271.593 196.585 271.104 196.956 270.718C197.326 270.331 197.804 270.065 198.328 269.952C198.851 269.84 199.396 269.887 199.893 270.087C200.389 270.288 200.815 270.632 201.114 271.077C201.412 271.521 201.571 272.045 201.57 272.58C201.583 273.273 201.321 273.943 200.842 274.444C200.362 274.944 199.703 275.234 199.01 275.25V275.25Z" fill="#65617D"/>
<path d="M212.3 192.29H211.88C211.33 192.29 210.88 192.22 210.82 191.67C209.6 180.33 202.45 180.11 202.45 177.44C202.45 174.77 209.61 174.55 210.82 163.21C210.88 162.66 211.33 162.59 211.88 162.59H212.3C212.605 162.593 212.9 162.481 213.125 162.274C213.349 162.068 213.487 161.784 213.51 161.48C213.517 161.322 213.492 161.164 213.436 161.015C213.38 160.867 213.295 160.731 213.186 160.617C213.077 160.502 212.946 160.41 212.8 160.347C212.655 160.284 212.498 160.251 212.34 160.25H185.65C185.347 160.249 185.054 160.363 184.832 160.569C184.609 160.775 184.473 161.058 184.45 161.36C184.442 161.519 184.466 161.677 184.521 161.826C184.576 161.975 184.661 162.111 184.771 162.226C184.88 162.341 185.012 162.433 185.158 162.496C185.304 162.558 185.461 162.59 185.62 162.59H186.08C186.62 162.59 187.08 162.66 187.14 163.21C188.36 174.55 195.51 174.77 195.51 177.44C195.51 180.11 188.35 180.33 187.14 191.67C187.08 192.22 186.62 192.29 186.08 192.29H185.65C185.347 192.289 185.054 192.403 184.832 192.609C184.609 192.815 184.473 193.098 184.45 193.4C184.442 193.559 184.466 193.717 184.521 193.866C184.576 194.015 184.661 194.151 184.771 194.266C184.88 194.381 185.012 194.473 185.158 194.536C185.304 194.598 185.461 194.63 185.62 194.63H212.34C212.499 194.63 212.656 194.598 212.802 194.536C212.948 194.473 213.08 194.381 213.189 194.266C213.299 194.151 213.384 194.015 213.439 193.866C213.494 193.717 213.518 193.559 213.51 193.4C213.485 193.097 213.346 192.814 213.122 192.608C212.898 192.403 212.604 192.289 212.3 192.29V192.29ZM191.24 189.44C193.64 182.77 197.88 183.58 197.88 180.95V176.31C197.88 174.69 194.81 173.56 192.88 170.93C192.818 170.832 192.782 170.72 192.778 170.604C192.774 170.488 192.801 170.373 192.856 170.271C192.911 170.169 192.992 170.084 193.091 170.024C193.191 169.964 193.304 169.931 193.42 169.93H204.52C204.638 169.928 204.754 169.958 204.856 170.016C204.958 170.075 205.042 170.16 205.1 170.262C205.157 170.365 205.186 170.481 205.182 170.599C205.179 170.716 205.143 170.831 205.08 170.93C203.19 173.57 200.08 174.7 200.08 176.32V180.96C200.08 183.57 204.16 182.86 206.74 189.45C206.98 190.04 206.8 190.78 206.17 190.78H191.82C191.17 190.76 191.02 190.04 191.24 189.44V189.44Z" fill="#65617D"/>
<path opacity="0.2" d="M576.54 177.43C576.545 180.38 575.379 183.212 573.298 185.302C571.216 187.393 568.39 188.572 565.44 188.58H279.69C278.198 188.625 276.713 188.369 275.322 187.829C273.93 187.29 272.662 186.476 271.591 185.436C270.52 184.397 269.668 183.153 269.087 181.779C268.506 180.404 268.206 178.927 268.206 177.435C268.206 175.943 268.506 174.466 269.087 173.091C269.668 171.717 270.52 170.473 271.591 169.434C272.662 168.394 273.93 167.581 275.322 167.041C276.713 166.501 278.198 166.245 279.69 166.29H565.44C568.388 166.301 571.211 167.479 573.291 169.567C575.372 171.655 576.54 174.482 576.54 177.43V177.43Z" fill="#5A5773"/>
<path opacity="0.2" d="M576.54 280.6C576.544 282.062 576.26 283.51 575.704 284.862C575.149 286.213 574.332 287.443 573.301 288.479C572.271 289.515 571.046 290.338 569.697 290.901C568.348 291.464 566.902 291.756 565.44 291.76H279.69C276.792 291.673 274.042 290.461 272.022 288.38C270.003 286.3 268.874 283.514 268.874 280.615C268.874 277.716 270.003 274.93 272.022 272.85C274.042 270.769 276.792 269.557 279.69 269.47H565.44C568.385 269.483 571.205 270.661 573.285 272.746C575.365 274.832 576.535 277.655 576.54 280.6Z" fill="#5A5773"/>
<path opacity="0.2" d="M576.54 384.63C576.54 387.577 575.372 390.403 573.291 392.489C571.21 394.576 568.387 395.752 565.44 395.76H279.69C278.198 395.805 276.713 395.55 275.322 395.01C273.93 394.47 272.662 393.656 271.591 392.616C270.52 391.577 269.668 390.333 269.087 388.959C268.506 387.584 268.206 386.107 268.206 384.615C268.206 383.123 268.506 381.645 269.087 380.271C269.668 378.897 270.52 377.653 271.591 376.614C272.662 375.574 273.93 374.76 275.322 374.221C276.713 373.681 278.198 373.425 279.69 373.47H565.44C568.391 373.481 571.217 374.662 573.298 376.754C575.379 378.846 576.545 381.679 576.54 384.63V384.63Z" fill="#5A5773"/>
<path d="M562 166.005V188.995H281.452C279.705 189.041 277.965 188.778 276.335 188.221C274.705 187.664 273.219 186.825 271.965 185.753C270.71 184.681 269.713 183.398 269.032 181.98C268.351 180.563 268 179.039 268 177.5C268 175.961 268.351 174.437 269.032 173.02C269.713 171.602 270.71 170.319 271.965 169.247C273.219 168.175 274.705 167.336 276.335 166.779C277.965 166.222 279.705 165.959 281.452 166.005H562Z" fill="#71BC78"/>
<path d="M561.69 269.45V291.76H279.69C276.792 291.673 274.042 290.461 272.022 288.38C270.003 286.3 268.874 283.514 268.874 280.615C268.874 277.716 270.003 274.93 272.022 272.85C274.042 270.769 276.792 269.557 279.69 269.47L561.69 269.45Z" fill="#71BC78"/>
<path d="M562 373.026V395.995H285.865C283.545 396.041 281.234 395.778 279.07 395.221C276.905 394.664 274.932 393.824 273.266 392.753C271.6 391.681 270.275 390.398 269.371 388.98C268.466 387.563 268 386.039 268 384.5C268 382.961 268.466 381.437 269.371 380.02C270.275 378.602 271.6 377.319 273.266 376.247C274.932 375.175 276.905 374.336 279.07 373.779C281.234 373.222 283.545 372.959 285.865 373.005L562 373.026Z" fill="#71BC78"/>
<path d="M603.26 353.76C603.26 353.76 608.26 327.59 624.26 327.46L635.99 351.6L628.17 357C628.17 357 611.22 357.53 603.26 353.76Z" fill="#65617D"/>
<path opacity="0.1" d="M636.04 351.59L628.21 356.99C628.21 356.99 616.21 357.37 607.71 355.26C606.179 354.909 604.688 354.403 603.26 353.75C603.26 353.75 603.26 353.6 603.35 353.33C603.347 353.297 603.347 353.263 603.35 353.23C604.075 349.947 605.079 346.732 606.35 343.62C606.84 342.44 607.35 341.23 608.01 340.02C610.36 335.5 613.66 331.02 618.18 328.87C619.851 328.049 621.671 327.573 623.53 327.47H624.01H624.25L624.5 328L628.5 336.16L636.04 351.59Z" fill="black"/>
<path d="M769.32 460.32C769.32 460.32 786.18 458.7 787.66 459.91C789.14 461.12 798.72 467.33 804.39 463.42C810.06 459.51 806.28 445.88 806.28 445.34C806.28 444.8 805.74 425.51 805.74 425.51L795.62 411.89L782.94 388.01L757.04 385.45L757.71 423.35L757.58 442.76L769.32 460.32Z" fill="#65617D"/>
<path opacity="0.1" d="M769.32 460.32C769.32 460.32 786.18 458.7 787.66 459.91C789.14 461.12 798.72 467.33 804.39 463.42C810.06 459.51 806.28 445.88 806.28 445.34C806.28 444.8 805.74 425.51 805.74 425.51L795.62 411.89L782.94 388.01L757.04 385.45L757.71 423.35L757.58 442.76L769.32 460.32Z" fill="black"/>
<path d="M620.93 326.76C620.93 326.76 619.59 343.22 609.33 343.49C609.33 343.49 606.43 341.74 602.52 338.82C593.52 332.07 579.22 319.12 583.17 307.06C588.83 289.8 616.35 321.63 616.35 321.63L618.47 324L620.93 326.76Z" fill="#A0616A"/>
<path opacity="0.1" d="M620.93 326.76C620.93 326.76 619.59 343.22 609.33 343.49C609.33 343.49 606.43 341.74 602.52 338.82L601.64 337.69C603.379 338.602 605.298 339.118 607.26 339.2C608.808 339.273 610.341 338.869 611.651 338.042C612.962 337.216 613.988 336.008 614.59 334.58C615.674 332.468 616.626 330.29 617.44 328.06C617.921 326.751 618.256 325.393 618.44 324.01L620.93 326.76Z" fill="black"/>
<path d="M616.44 356.58L614.13 353.58L606.37 343.58L602.37 338.47C604.109 339.382 606.028 339.898 607.99 339.98C609.537 340.051 611.07 339.647 612.38 338.821C613.691 337.995 614.717 336.787 615.32 335.36C616.401 333.244 617.349 331.063 618.16 328.83C619.44 325.19 619.42 323.32 618.96 322.69C618.5 322.06 621.83 325.13 623.42 326.64L623.48 326.7L624.23 327.41L624.5 327.96L628.41 335.77C628.41 335.77 628.41 335.88 628.41 336.1C628.83 338.61 630.15 354.35 616.44 356.58Z" fill="#E7EFFD"/>
<path d="M697.29 703.76C697.29 703.76 685.95 711.18 680.29 710.09C674.63 709 668.82 711.99 668.82 711.99C664.918 716.253 659.998 719.457 654.52 721.3C645.35 724.4 632.52 723.18 625.25 720.75C621.8 719.6 621.53 718.12 623.19 716.29C625.03 714.29 629.26 711.79 634.19 708.88C643.44 703.39 653.44 692.47 653.44 692.47C653.44 692.47 653.58 689.77 655.2 688.56C656.188 687.694 657.098 686.744 657.92 685.72C659.37 684 660.73 682.21 660.73 682.21L694.05 683.3C694.05 683.3 694.61 685.7 695.05 688.15C695.433 689.74 695.591 691.376 695.52 693.01C695.437 693.607 695.479 694.214 695.643 694.794C695.806 695.374 696.088 695.914 696.47 696.38L697.06 701.89L697.29 703.76Z" fill="#65617D"/>
<path d="M767.02 713.11C766.62 714.72 766.14 717.61 765.92 718.97C765.85 719.43 765.81 719.72 765.81 719.72C765.81 719.72 763.11 725.65 748.14 727.81C733.17 729.97 733.14 722.81 733.14 722.81C733.14 722.81 733.2 722.04 733.3 720.88C733.521 717.368 733.922 713.871 734.5 710.4C735.03 708.64 734.09 700.95 734.09 700.95L733.93 692.95L733.82 687.36L758.66 684.76C758.815 686.618 759.082 688.464 759.46 690.29C759.62 691.298 759.988 692.262 760.54 693.12C761.9 694.61 762.71 701.21 762.71 701.21C762.71 701.21 767.56 710.94 767.02 713.11Z" fill="#65617D"/>
<path opacity="0.1" d="M694.05 683.3C694.05 683.3 694.61 685.7 695.05 688.15C691.45 688.82 675.71 691.54 671.78 689.63C667.33 687.47 657.78 686.26 657.78 686.26L657.94 685.72C659.39 684 660.75 682.21 660.75 682.21L694.05 683.3Z" fill="black"/>
<path opacity="0.1" d="M759.44 690.31C753.15 689.24 739.36 691.82 733.93 692.93L733.82 687.34L758.66 684.76C758.808 686.624 759.068 688.477 759.44 690.31V690.31Z" fill="black"/>
<path d="M773.49 485.81L772.96 504.81C772.96 504.81 773.63 533.81 771.61 538.4C769.59 542.99 769.61 561.47 769.61 561.47C769.61 561.47 770.96 570.23 769.47 572.12C767.98 574.01 769.06 581.02 770.15 584.66C771.24 588.3 770.28 597.35 770.28 597.35L770.01 648.35C770.01 648.35 768.53 661.56 766.64 663.46C766.093 664.016 765.703 664.706 765.51 665.462C765.316 666.217 765.327 667.01 765.54 667.76C765.54 667.76 763.92 675.31 764.32 676.66C764.72 678.01 765.54 681.12 762.44 682.6C759.34 684.08 760.14 688.8 760.14 688.8C752.73 687.05 731.68 691.8 731.68 691.8C729.409 687.115 727.425 682.296 725.74 677.37C725.378 676.371 725.232 675.306 725.314 674.246C725.395 673.186 725.702 672.156 726.213 671.224C726.724 670.292 727.428 669.48 728.277 668.841C729.127 668.202 730.103 667.752 731.14 667.52C733.97 667.12 729.14 662.13 729.14 662.13C729.14 662.13 729.68 661.45 728.33 656.6C726.98 651.75 728.6 639.33 729 636.09C729.4 632.85 731.44 617.2 731.44 617.2C731.44 617.2 730.36 597.37 731.17 596.56C731.98 595.75 734.68 587.92 733.33 585.36C731.98 582.8 729.82 565.94 729.82 564.99C729.82 564.04 728.07 542.19 728.07 542.19C728.07 542.19 726.44 526.95 726.83 523.76C727.22 520.57 725.74 508.51 725.74 508.51C725.74 498.51 719.95 487.74 719.95 487.74L719.8 488.13L707.26 521.06C707.26 521.06 705.26 531.06 703.49 536.7C702.382 540.552 701.501 544.465 700.85 548.42L700.73 549.14C700.73 549.44 700.64 549.7 700.61 549.9L700.53 550.44C700.53 550.44 701.47 557.59 699.99 559.89C698.51 562.19 696.89 569.06 696.89 570.95C696.89 572.84 697.02 580.12 697.02 580.12C697.02 580.12 697.56 594.55 696.08 596.12C695.651 596.475 695.352 596.962 695.229 597.504C695.106 598.047 695.166 598.615 695.4 599.12C695.4 599.12 697.83 610.05 696.75 612.88C695.67 615.71 696.49 622.32 696.49 622.32C696.49 622.32 694.33 643.23 694.06 644.32C693.79 645.41 692.3 653.76 693.92 654.44C695.54 655.12 698.64 659.16 698.64 659.16C698.64 659.16 699.32 676.83 696.89 678.16C694.46 679.49 695.81 686.39 695.81 686.39C695.81 686.39 676.25 690.17 671.81 688.01C667.37 685.85 657.81 684.63 657.81 684.63L659.15 680.19C659.07 680.35 658.15 681.79 657.54 676.27C656.87 670.47 662.54 673.27 662.54 673.27C662.54 673.27 666.99 674.35 659.84 667.34C652.69 660.33 656.2 653.17 656.6 653.17C657 653.17 657.95 642.79 657.95 642.79C657.95 642.79 659.17 636.58 658.22 631.72C657.27 626.86 656.44 611.76 656.44 611.76C656.44 611.76 657.11 600.3 655.9 596.11C654.69 591.92 656.71 584.38 657.11 582.62C657.51 580.86 655.9 564.81 655.9 564.81C655.9 564.81 657.25 557.26 656.44 551.74C655.63 546.22 657.25 525.84 657.25 525.84L659.68 502.36C659.68 502.36 661.43 495.08 661.16 492.11C660.89 489.14 663.16 478.76 663.16 478.76C663.03 476.546 663.399 474.332 664.24 472.28C665.59 469.59 666.14 460.68 666.14 460.68L679.08 431L685.44 404.88L771.1 404.07C771.1 404.07 771.41 406.33 771.93 410.46C772.45 414.59 773.18 420.69 773.99 428.23C774.74 435.07 775.56 443.13 776.36 452.09C778.89 480.68 773.49 485.81 773.49 485.81Z" fill="#3F3D56"/>
<path d="M765.54 249.61L745.54 270.93C745.54 270.93 719.92 260.67 722.61 257.17C723.61 255.81 723.49 251.53 722.89 246.8C721.89 239.33 719.89 230.73 719.89 230.73C719.89 230.73 764.67 223.44 760.89 230.99C759.51 233.75 759.75 236.99 760.61 239.99C761.724 243.442 763.389 246.69 765.54 249.61V249.61Z" fill="#985F67"/>
<path opacity="0.1" d="M760.95 230.99C759.57 233.75 758.95 233.99 759.77 236.99C753.92 243.27 746.47 250.14 737.21 250.14C732.248 250.142 727.355 248.984 722.92 246.76C721.92 239.29 719.92 230.69 719.92 230.69C719.92 230.69 764.73 223.44 760.95 230.99Z" fill="black"/>
<path d="M769.32 217.23C769.32 225.746 765.937 233.913 759.915 239.935C753.893 245.957 745.726 249.34 737.21 249.34C728.694 249.34 720.527 245.957 714.505 239.935C708.483 233.913 705.1 225.746 705.1 217.23C705.1 217.08 705.1 216.93 705.1 216.77C705.296 208.346 708.796 200.336 714.844 194.47C720.893 188.603 729.005 185.348 737.431 185.409C745.858 185.469 753.922 188.839 759.886 194.792C765.85 200.745 769.234 208.804 769.31 217.23H769.32Z" fill="#A0616A"/>
<path opacity="0.1" d="M773.96 429.04C769.71 429.04 755.55 429.19 739.73 429.44H739.53L734.31 429.53H734.14C715.37 429.83 696.88 426.16 689.46 426.86C673.68 428.34 695.12 412.29 695.12 412.29C706.896 415.149 719.01 416.37 731.12 415.92L735.66 415.69C750 414.88 764.41 413.53 771.94 411.27C772.44 415.44 773.15 421.5 773.96 429.04Z" fill="black"/>
<path d="M773.96 428.23C769.71 428.23 755.55 428.38 739.73 428.63H739.53L734.31 428.72H734.14C715.37 429.02 696.88 425.35 689.46 426.05C673.68 427.53 695.12 411.48 695.12 411.48C706.896 414.339 719.01 415.564 731.12 415.12L735.66 414.88C750 414.07 764.41 412.72 771.94 410.46C772.44 414.63 773.15 420.69 773.96 428.23Z" fill="#E3A79F"/>
<path opacity="0.1" d="M728.58 258.52L703.76 270.12L684.6 418.23C684.6 418.23 695.93 413.1 702.41 416.34C708.89 419.58 728.85 416.61 728.85 416.61C728.85 416.61 743.42 415.8 745.57 417.42C747.72 419.04 773.09 410.67 773.09 410.67C773.09 410.67 777.68 400.42 774.17 398.8C770.66 397.18 775.25 381.27 775.25 381.27L773.09 274.43L768.78 260.67L757.18 253.67L745.3 263.11L739.64 263.92L728.58 258.52Z" fill="black"/>
<path d="M728.58 256.9L703.76 268.5L684.6 416.61C684.6 416.61 695.93 411.48 702.44 414.76C708.95 418.04 728.88 415.03 728.88 415.03C728.88 415.03 743.45 414.22 745.6 415.84C747.75 417.46 773.12 409.1 773.12 409.1C773.12 409.1 777.71 398.84 774.2 397.23C770.69 395.62 775.28 379.69 775.28 379.69L773.12 272.85L768.81 259.09L757.21 252.09L745.33 261.53L739.67 262.34L728.58 256.9Z" fill="#E7EFFD"/>
<path opacity="0.1" d="M722.64 248.76C722.64 248.76 721.56 249.57 721.29 254.97C721.02 260.37 717.29 272.5 717.29 272.5C717.29 272.5 731.29 262.79 738.29 263.87L722.64 248.76Z" fill="black"/>
<path d="M722.64 247.18C722.64 247.18 721.56 247.99 721.29 253.39C721.02 258.79 717.29 270.93 717.29 270.93C717.29 270.93 731.29 261.21 738.29 262.29L722.64 247.18Z" fill="#E7EFFD"/>
<path opacity="0.1" d="M760.95 244.49L738.83 263.91C738.83 263.91 757.45 274.97 759.83 277.67C762.21 280.37 764.69 251.23 764.69 251.23L760.95 244.49Z" fill="black"/>
<path d="M761.76 242.87L739.64 262.29C739.64 262.29 758.25 273.35 760.64 276.05C763.03 278.75 765.5 249.61 765.5 249.61L761.76 242.87Z" fill="#E7EFFD"/>
<path opacity="0.1" d="M723.44 248.76C723.44 248.76 721.01 247.55 718.72 251.06C717.036 253.349 714.747 255.122 712.11 256.18C712.11 256.18 687.56 260.09 686.62 263.33L675.15 264.01C675.15 264.01 671.1 264.55 670.7 273.01C670.3 281.47 668.14 282.32 668.14 282.32C668.14 282.32 663.44 290.76 663.83 295.07C664.22 299.38 660.19 301.55 660.19 301.55L677.05 345.39C677.05 345.39 677.59 363.46 674.49 370.07C671.39 376.68 665.58 405.95 665.58 405.95C665.58 405.95 668.01 405.41 667.88 407.03C667.75 408.65 664.88 426.32 664.88 426.32C664.88 426.32 664.07 433.32 662.72 435.76C661.37 438.2 661.24 450.87 661.24 450.87L659.08 460.05C659.08 460.05 664.2 471.51 672.08 469.89C679.96 468.27 694.08 437.65 694.08 437.65L703.08 404.65L710.08 372.01L712.08 349.89L715.32 300.89L720.04 268.52C720.04 268.52 725.34 251.1 723.44 248.76Z" fill="black"/>
<path d="M722.64 247.18C722.64 247.18 720.21 245.97 717.92 249.48C716.236 251.769 713.947 253.542 711.31 254.6C711.31 254.6 686.76 258.52 685.82 261.75L674.35 262.43C674.35 262.43 670.35 262.97 669.9 271.43C669.45 279.89 667.34 280.76 667.34 280.76C667.34 280.76 662.62 289.13 663.02 293.44C663.42 297.75 659.38 299.92 659.38 299.92L676.24 343.76C676.24 343.76 676.78 361.83 673.68 368.44C670.58 375.05 664.77 404.32 664.77 404.32C664.77 404.32 667.2 403.79 667.07 405.4C666.94 407.01 664.07 424.69 664.07 424.69C664.07 424.69 663.26 431.69 661.91 434.14C660.56 436.59 660.43 449.24 660.43 449.24L658.27 458.42C658.27 458.42 663.39 469.88 671.22 468.26C679.05 466.64 693.22 436.02 693.22 436.02L702.22 403.02L709.22 370.37L711.22 348.25L714.46 299.25L719.18 266.88C719.18 266.88 724.53 249.48 722.64 247.18Z" fill="#65617D"/>
<path opacity="0.1" d="M636.04 351.59L628.21 356.99C628.21 356.99 616.21 357.37 607.71 355.26L603.35 353.33L602.48 352.95L603.38 353.23C607.88 354.57 611.38 354.54 614.17 353.61C625.24 349.89 624.02 331.61 623.59 327.47C623.59 327.06 623.52 326.79 623.5 326.68C623.516 326.715 623.536 326.749 623.56 326.78C623.712 327.029 623.882 327.267 624.07 327.49C624.22 327.67 624.39 327.85 624.56 328.02L628.47 335.83C628.47 335.83 628.47 335.94 628.47 336.16L636.04 351.59Z" fill="black"/>
<path d="M663.15 298.85L659.38 299.93L658.84 307.62C658.84 307.62 654.39 306.94 653.17 312.2C651.95 317.46 649.8 319.89 649.8 319.89C649.8 319.89 642.38 326.1 641.98 331.36L637.44 334.19C637.44 334.19 626.78 331.76 624.36 327.45C624.36 327.45 629.21 362.25 603.36 353.75C603.36 353.75 632.36 366.43 633.71 368.18C635.06 369.93 643.96 375.06 652.06 370.75C660.16 366.44 661.91 359.82 661.91 359.82C661.91 359.82 669.73 348.89 670 347.27C670.27 345.65 676.34 343.77 676.34 343.77L687.84 315.76L663.15 298.85Z" fill="#65617D"/>
<path opacity="0.1" d="M757.85 260.67L761.76 242.87C761.76 242.87 763.52 248.67 765.27 250.02L771.07 254.47C771.07 254.47 776.87 257.17 778.89 257.17C780.91 257.17 791.84 260 793.19 261.48C794.54 262.96 799.94 261.89 799.94 261.89C799.94 261.89 804.39 263.37 808.3 264.32C812.21 265.27 814.1 271.73 813.3 274.32C812.973 275.594 812.975 276.931 813.305 278.204C813.636 279.477 814.284 280.646 815.19 281.6C816.81 283.22 817.62 288.48 817.62 288.48C819.601 289.131 821.246 290.536 822.2 292.39C823.55 295.39 823.2 301.84 823.2 301.84L803.1 330.16C803.1 330.16 803.37 341.09 802.56 343.52C801.75 345.95 805.39 387.22 805.39 387.22L809.57 458.22C809.57 458.22 804.04 462.94 802.83 463.48C801.62 464.02 800.4 438.39 800.4 437.48C800.4 436.57 769.18 390.76 769.18 390.76C769.18 390.76 765 384.02 765 382.53C765 381.04 761.09 367.42 761.09 367.42L755.15 341.12L757.85 260.67Z" fill="black"/>
<path d="M824.81 300.27C824.81 301.2 824.81 301.81 824.81 301.81L804.72 330.12C804.72 330.12 804.99 341.05 804.18 343.48C803.71 344.88 804.74 359.4 805.69 371.33C806.37 379.93 807.01 387.18 807.01 387.18L808.79 417.28L811.19 458.14C811.19 458.14 805.66 462.86 804.45 463.4C803.24 463.94 802.02 438.31 802.02 437.4C802.02 436.49 770.8 390.76 770.8 390.76C770.8 390.76 766.62 384.01 766.62 382.53C766.62 381.05 762.71 367.42 762.71 367.42L756.77 341.12L759.47 260.72L761.76 242.92C761.76 242.92 765.13 248.72 766.89 250.06C768.65 251.4 772.69 254.52 772.69 254.52C772.69 254.52 778.49 257.22 780.51 257.22C782.53 257.22 793.46 260.05 794.81 261.53C796.16 263.01 801.56 261.94 801.56 261.94C801.56 261.94 806.01 263.42 809.92 264.37C813.83 265.32 815.72 271.79 814.92 274.37C814.592 275.646 814.594 276.984 814.924 278.259C815.255 279.534 815.904 280.704 816.81 281.66C818.42 283.28 819.23 288.54 819.23 288.54C821.216 289.191 822.866 290.6 823.82 292.46C824.75 294.42 824.84 298.16 824.81 300.27Z" fill="#65617D"/>
<path opacity="0.1" d="M659.92 659.69C660.59 659.69 688.92 660.77 688.38 665.35C687.84 669.93 659.92 659.69 659.92 659.69Z" fill="black"/>
<path opacity="0.1" d="M666.26 667.38C666.26 667.38 685.26 670.48 680.26 673.31C675.26 676.14 666.26 667.38 666.26 667.38Z" fill="black"/>
<path opacity="0.1" d="M736.94 656.76C736.94 656.76 768.51 659.46 763.79 662.96C759.07 666.46 747.87 667.01 747.33 667.15C746.79 667.29 736.94 656.76 736.94 656.76Z" fill="black"/>
<path opacity="0.1" d="M733.16 670.61C733.16 670.61 750.7 673.61 751.24 676.95C751.78 680.29 733.16 670.61 733.16 670.61Z" fill="black"/>
<path opacity="0.1" d="M742.88 589.41C742.88 589.41 758.88 593.19 759.88 595.75L742.88 589.41Z" fill="black"/>
<path opacity="0.1" d="M680.96 601.01C680.96 601.01 672.6 603.44 680.69 608.29C688.78 613.14 680.96 601.01 680.96 601.01Z" fill="black"/>
<path opacity="0.1" d="M718.06 471.38C719 471.38 733.7 466.52 738.83 468.68C742.502 470.051 746.381 470.782 750.3 470.84L718.06 471.38Z" fill="black"/>
<path opacity="0.1" d="M719.95 486.76L719.8 488.1L707.26 521.03C707.26 521.03 705.26 531.03 703.49 536.67C702.382 540.522 701.501 544.435 700.85 548.39L711.98 479.39L719.95 486.76Z" fill="black"/>
<path d="M739.53 428.63L734.31 428.72H734.14L731.08 415.12L735.62 414.88L739.53 428.63Z" fill="#3F3D56"/>
<path d="M803.17 412.16L799.82 414.93L788.61 424.16C788.61 424.16 758.25 440.35 749.89 424.97C742.52 411.42 776.89 401.75 785.22 399.64L786.99 399.21L803.17 412.16Z" fill="#A0616A"/>
<path opacity="0.1" d="M673.54 279.56C673.54 279.56 679.48 282.26 680.83 286.03C682.18 289.8 673.54 279.56 673.54 279.56Z" fill="black"/>
<path opacity="0.1" d="M655.2 320.03C655.2 320.03 646.56 330.55 650.07 334.59C653.58 338.63 655.2 320.03 655.2 320.03Z" fill="black"/>
<path opacity="0.1" d="M809.51 285.49C809.51 285.49 801.42 286.3 801.15 293.32L809.51 285.49Z" fill="black"/>
<path opacity="0.1" d="M734.51 396.11C735.32 395.3 753.94 367.78 758.25 370.21L734.51 396.11Z" fill="black"/>
<path opacity="0.1" d="M803.17 412.16L799.82 414.93C796.82 410 784.7 400.15 784.7 400.15L785.22 399.64L786.99 399.21L803.17 412.16Z" fill="black"/>
<path d="M806.44 407.17C806.44 407.17 805.24 410.17 803.99 412.77C802.74 415.37 801.38 417.77 801.32 415.77C801.18 411.99 785.54 399.31 785.54 399.31L787.66 397.25L790.12 394.86L806.44 407.17Z" fill="#E7EFFD"/>
<path opacity="0.1" d="M806.95 387.2L808.73 417.3C804.53 410.79 793.03 394.08 785.64 394.62L803.58 373.98C804.324 373.152 805.009 372.273 805.63 371.35C806.31 379.95 806.95 387.2 806.95 387.2Z" fill="black"/>
<path opacity="0.1" d="M806.44 407.17C806.44 407.17 805.24 410.17 803.99 412.77C799.29 406.32 792.82 398.7 787.66 397.28L790.12 394.89L806.44 407.17Z" fill="black"/>
<path d="M819.9 298.04L824.76 301.82C824.76 301.82 832.85 301.95 833.66 308.7C834.47 315.45 841.89 318.54 841.89 318.54C841.89 318.54 847.42 324.07 847.42 326.64C847.42 329.21 851.6 333.79 851.6 334.19C851.6 334.59 855.6 342.82 855.11 344.31C854.62 345.8 859.42 352.31 857.94 354.69C856.722 356.871 855.64 359.126 854.7 361.44C854.7 361.44 848.36 373.58 845.13 375.87C841.9 378.16 827.05 397.46 827.05 397.46C827.05 397.46 811.13 415.8 811.13 421.46C811.13 421.46 795.62 395.56 786.45 396.23L804.44 375.6C804.44 375.6 807.54 372.23 807.68 370.21C807.82 368.19 816.31 358.88 820.36 358.47C820.36 358.47 821.03 352.94 819.28 352.81C817.53 352.68 816.04 348.35 816.04 348.35C816.04 348.35 804.17 334.35 804.04 325.42C803.91 316.49 819.9 298.04 819.9 298.04Z" fill="#65617D"/>
<path opacity="0.1" d="M827.05 310.85C827.05 310.85 815.72 319.22 818.15 321.91C820.58 324.6 827.05 310.85 827.05 310.85Z" fill="black"/>
<path opacity="0.1" d="M827.59 345.39C827.59 345.39 848.59 338.64 850.79 345.39H827.59Z" fill="black"/>
<path opacity="0.1" d="M697.29 703.76C697.29 703.76 685.95 711.18 680.29 710.09C674.63 709 668.82 711.99 668.82 711.99C664.918 716.253 659.998 719.457 654.52 721.3C645.35 724.4 632.52 723.18 625.25 720.75C621.8 719.6 621.53 718.12 623.19 716.29C631.1 717.87 648.8 721.01 653.58 718.73C659.78 715.73 668.68 709.29 668.68 709.29C668.68 709.29 680.29 707.76 681.91 707.76C683.06 707.76 692.02 704.06 697.07 701.94L697.29 703.76Z" fill="black"/>
<path opacity="0.1" d="M765.92 718.97C765.85 719.43 765.81 719.72 765.81 719.72C765.81 719.72 763.11 725.65 748.14 727.81C733.17 729.97 733.14 722.81 733.14 722.81C733.14 722.81 733.2 722.04 733.3 720.88C738.05 722.69 748.44 724.7 765.92 718.97Z" fill="black"/>
<path opacity="0.1" d="M679.14 309.23C679.14 309.23 679.14 339.99 676.51 343.03C673.88 346.07 679.14 309.23 679.14 309.23Z" fill="black"/>
<path opacity="0.1" d="M800.75 319.15L804.66 330.15C804.66 330.15 806.21 319.35 800.75 319.15Z" fill="black"/>
<g opacity="0.1">
<path opacity="0.1" d="M705.36 201.24C706.36 198.71 703.77 196.24 703.43 193.51C703.084 194.274 702.936 195.113 703 195.95C703.17 198 704.68 199.9 705.08 201.79C705.189 201.615 705.283 201.431 705.36 201.24V201.24Z" fill="black"/>
<path opacity="0.1" d="M750.13 230.3C749.13 226.04 749.45 221.54 748.47 217.3C747.49 213.06 744.47 208.59 740.31 208.52C738.53 208.52 736.45 209.18 735.16 207.84C734.38 207.04 734.23 205.77 733.64 204.79C730.64 200.01 721.7 202.43 718.02 204.88C712.5 208.55 704.92 216.22 697.85 214.48C697.51 215.3 697.19 216.12 696.93 216.97C704.15 219.23 711.93 211.27 717.61 207.51C721.29 205.06 730.28 202.64 733.24 207.42C733.82 208.42 733.98 209.67 734.76 210.47C736.04 211.81 738.12 211.12 739.91 211.15C744.04 211.22 747.06 215.6 748.06 219.93C749.06 224.26 748.74 228.85 749.77 233.18C749.705 232.206 749.828 231.228 750.13 230.3V230.3Z" fill="black"/>
<path opacity="0.1" d="M770.44 225.24C769.7 227.38 767.78 229.34 765.7 228.9C763.62 228.46 762.61 226.11 761.06 224.62C760.101 223.718 758.884 223.137 757.58 222.958C756.275 222.779 754.947 223.01 753.78 223.62C752.654 224.289 751.727 225.247 751.098 226.396C750.468 227.544 750.158 228.841 750.2 230.15C750.737 228.502 751.867 227.113 753.37 226.25C754.537 225.64 755.865 225.409 757.17 225.588C758.474 225.767 759.691 226.348 760.65 227.25C762.21 228.74 763.27 231.11 765.3 231.53C767.33 231.95 769.3 230.01 770.03 227.87C770.418 226.608 770.666 225.306 770.77 223.99C770.685 224.413 770.574 224.83 770.44 225.24V225.24Z" fill="black"/>
<path opacity="0.1" d="M776.76 206.86C775.24 210.86 772.5 214.31 771.58 218.52C771.4 219.37 771.29 220.24 771.19 221.11C772.11 216.92 774.84 213.47 776.36 209.49C777.031 207.689 777.451 205.805 777.61 203.89C777.398 204.899 777.114 205.892 776.76 206.86V206.86Z" fill="black"/>
</g>
<path d="M707.33 216.02C707.33 216.02 704.018 211.009 705.292 205.612C706.053 202.548 706.354 199.387 706.183 196.233C707.609 191.558 709.398 187.004 711.534 182.613C714.209 177.73 712.935 175.675 721.344 174.133C729.752 172.591 726.312 161.541 748.479 173.49C749.227 174.543 750.268 175.349 751.469 175.807C752.671 176.264 753.98 176.352 755.231 176.06C759.818 175.161 761.474 181.585 761.474 181.585C761.474 181.585 764.531 179.786 765.678 182.356C766.825 184.926 775 180.814 775 198.16C775 215.506 765.697 231 765.697 231C765.697 231 766.379 201.822 751.218 198.867C736.058 195.912 719.751 187.303 715.802 198.353C713.67 204.555 710.827 210.484 707.33 216.02Z" fill="#2F2E41"/>
</svg>
