<svg style="max-height: 85vh" viewBox="0 0 163 539" fill="none" xmlns="http://www.w3.org/2000/svg">
<path d="M134.834 225.193L147.638 260.266C147.638 260.266 134.277 300.349 147.638 301.463C161 302.576 162.67 263.049 162.67 263.049L155.433 220.739L134.834 225.193Z" fill="#A0616A"/>
<path d="M140.958 110.509L150.422 119.973V165.067C150.422 165.067 155.989 173.418 154.876 175.645C153.762 177.871 152.649 177.871 153.762 179.542C154.876 181.212 155.989 182.325 154.876 183.439C154.334 184.161 154.041 185.04 154.041 185.944C154.041 186.847 154.334 187.726 154.876 188.449C155.989 189.562 158.216 191.233 156.546 192.903C154.876 194.573 152.649 193.46 154.876 199.583C157.103 205.707 161 207.377 159.886 209.604C158.773 211.831 158.773 217.398 158.773 217.398L134.834 220.739L129.824 157.83L140.958 110.509Z" fill="#D0CDE1"/>
<path d="M159.886 216.842L132.05 217.955L133.164 229.646L157.66 225.192L159.886 216.842Z" fill="#3F3D56"/>
<path d="M83.3379 52.3311L79.9969 85.735L113.957 90.7451L116.462 71.5381L118.968 52.3311H83.3379Z" fill="#926067"/>
<path d="M9.57239 211.275L28.5008 251.915C28.5008 251.915 31.8411 270.843 36.8516 271.4C41.862 271.957 46.8725 251.915 46.8725 251.915L40.1919 241.337L32.3978 211.275L9.57239 211.275Z" fill="#A0616A"/>
<path d="M49.0994 248.018L33.5113 272.514C33.5113 272.514 18.4799 505.779 20.7068 504.108C22.9336 502.438 30.171 501.881 32.9546 497.428C35.7381 492.974 52.9964 497.428 52.9964 497.428L63.0174 486.85V478.499C63.0174 476.829 83.0592 349.341 83.0592 349.341V381.63C83.0592 381.63 76.9353 500.211 86.9562 499.098C96.9771 497.984 117.576 491.304 117.576 491.304C117.576 491.304 147.082 269.73 138.174 261.379C129.267 253.028 125.37 234.1 125.37 234.1L49.0994 248.018Z" fill="#2F2E41"/>
<path d="M101.988 63.1875C116.746 63.1875 128.71 51.2234 128.71 36.465C128.71 21.7066 116.746 9.74255 101.988 9.74255C87.2292 9.74255 75.2651 21.7066 75.2651 36.465C75.2651 51.2234 87.2292 63.1875 101.988 63.1875Z" fill="#A0616A"/>
<path d="M42.4188 91.0234L38.5217 88.7965C38.5217 88.7965 21.2635 100.488 15.6963 126.653C10.1291 152.819 6.23207 159.5 6.23207 159.5C6.23207 159.5 0.664932 160.613 4.56196 164.51C8.45899 168.407 8.45894 167.851 5.11866 170.077C1.77838 172.304 -0.448538 167.851 1.77833 172.304C4.0052 176.758 6.78883 175.645 4.56196 178.428C2.33509 181.212 -1.56197 181.212 0.664929 183.439C2.89183 185.666 -1.5619 190.676 1.22169 192.903C4.00528 195.13 5.11866 195.686 5.11866 199.583C5.10165 201.858 5.47833 204.118 6.23207 206.264H35.1815C35.1815 206.264 29.6142 195.686 31.2844 193.46C32.9546 191.233 33.5113 189.006 32.3979 187.892C31.2845 186.779 27.9441 189.006 31.2844 186.222C34.6247 183.439 35.7382 185.109 34.6248 181.768C33.5113 178.428 31.2844 180.098 33.5113 178.428C35.7382 176.758 37.4083 177.315 36.2949 175.645C35.1815 173.974 32.9546 173.974 35.1815 172.861C37.4083 171.748 39.0785 172.861 38.5218 170.077C37.9651 167.294 37.4084 168.407 38.5218 167.294C39.6352 166.18 51.3263 128.324 51.3263 127.21C51.3263 126.097 42.4188 91.0234 42.4188 91.0234Z" fill="#D0CDE1"/>
<path d="M36.8519 204.037L1.77789 206.264L10.6859 214.615L35.1819 215.172L36.8519 204.037Z" fill="#3F3D56"/>
<path d="M46.8725 245.791L39.6351 259.152C39.6351 259.152 61.3472 261.936 69.1412 264.72C76.9353 267.503 96.9772 271.4 96.9772 271.4L101.988 251.915L46.8725 245.791Z" fill="#3F3D56"/>
<path d="M110.338 251.915L116.462 270.287L140.958 265.276L138.174 248.018L110.338 251.915Z" fill="#3F3D56"/>
<path d="M120.359 72.095C120.359 72.095 118.689 70.9815 114.792 73.2084C110.895 75.4353 98.0906 76.5487 91.9667 69.8681C85.8428 63.1875 81.389 57.6203 79.7189 58.7337C78.0487 59.8472 76.9353 72.6517 76.9353 72.6517L71.3681 77.1055L38.5217 88.7965L41.3053 163.954L46.3158 181.212C46.3158 181.212 42.4188 194.573 47.4292 202.367C52.4396 210.161 44.6456 212.945 44.6456 212.945C44.6456 212.945 42.9755 215.172 44.0889 220.739C45.2024 226.306 42.9755 246.905 42.9755 246.905C42.9755 246.905 90.2965 268.06 139.844 249.688L134.277 228.533L131.494 181.212C131.494 181.212 134.277 173.418 133.721 170.077C133.164 166.737 150.422 119.973 150.422 119.973C150.422 119.973 147.639 96.5906 133.164 91.5802C118.689 86.5697 116.462 81.5592 116.462 81.5592C116.462 81.5592 123.143 74.3219 120.359 72.095Z" fill="#D0CDE1"/>
<path d="M75.0798 39.8882C75.0798 39.8882 72.3048 35.7257 73.3721 31.243C74.0099 28.698 74.2617 26.0716 74.1193 23.4517C75.3131 19.5684 76.8121 15.7855 78.6019 12.1383C80.8433 8.08257 79.7759 6.37489 86.8201 5.09412C93.8644 3.81335 90.9826 -5.36544 109.554 4.56048C110.18 5.43529 111.052 6.10491 112.059 6.48481C113.065 6.86471 114.162 6.93787 115.21 6.69508C119.053 5.94797 120.44 11.2845 120.44 11.2845C120.44 11.2845 123.002 9.79025 123.962 11.9249C124.923 14.0595 131.772 10.6437 131.772 25.0523C131.772 39.4609 123.978 52.3315 123.978 52.3315C123.978 52.3315 124.549 28.0945 111.848 25.6397C99.1475 23.1849 85.486 16.034 82.1774 25.2128C80.3914 30.3644 78.0094 35.2896 75.0798 39.8882Z" fill="#2F2E41"/>
<path d="M124.256 45.6509C125.64 45.6509 126.762 44.1553 126.762 42.3105C126.762 40.4657 125.64 38.9702 124.256 38.9702C122.873 38.9702 121.751 40.4657 121.751 42.3105C121.751 44.1553 122.873 45.6509 124.256 45.6509Z" fill="#A0616A"/>
<path d="M110.06 489.331L113.976 501.077C113.976 501.077 113.975 512.823 117.891 518.696C121.806 524.569 125.721 537.294 110.06 538.273C94.399 539.251 87.5472 533.378 87.5472 533.378C87.5472 533.378 90.4837 525.548 87.5472 522.611C84.6107 519.675 87.5472 513.802 87.5472 513.802L90.4837 490.31L110.06 489.331Z" fill="#2F2E41"/>
<path d="M33.7902 489.331L29.8749 501.077C29.8749 501.077 29.8749 512.823 25.9596 518.696C22.0443 524.569 18.129 537.294 33.7902 538.273C49.4514 539.251 56.3032 533.378 56.3032 533.378C56.3032 533.378 53.3667 525.548 56.3032 522.611C59.2397 519.675 56.3032 513.802 56.3032 513.802L53.3667 490.31L33.7902 489.331Z" fill="#2F2E41"/>
</svg>
