<svg id="" viewBox="0 0 486 680" fill="none" xmlns="http://www.w3.org/2000/svg">
<path d="M115.772 649.268L125.261 658.757C125.261 658.757 147.403 662.974 142.131 670.355C136.859 677.736 82.032 668.246 82.032 668.246L83.0863 651.377L115.772 649.268Z" fill="#2F2E41"/>
<path d="M47.2379 649.268L56.7272 658.757C56.7272 658.757 78.8689 662.974 73.597 670.355C68.3252 677.736 13.4983 668.246 13.4983 668.246L14.5526 651.377L47.2379 649.268Z" fill="#2F2E41"/>
<path opacity="0.2" d="M98.9666 464.389L78.6973 519.292L80.676 520.022L100.945 465.119L98.9666 464.389Z" fill="black"/>
<path d="M363.16 450.095H266.865V456.622H363.16V450.095Z" fill="#71BC78"/>
<path d="M237.918 448.042H227.284V458.675H237.918V448.042Z" fill="#71BC78"/>
<path d="M353.707 469.776H266.865V476.303H353.707V469.776Z" fill="#E6E6E6"/>
<path d="M400.969 488.937H266.865V495.465H400.969V488.937Z" fill="#71BC78"/>
<path d="M377.551 507.187H268.26V513.714H377.551V507.187Z" fill="#E6E6E6"/>
<path d="M330.668 527.21H266.865V533.737H330.668V527.21Z" fill="#E6E6E6"/>
<path d="M363.16 546.769H266.865V553.296H363.16V546.769Z" fill="#E6E6E6"/>
<path d="M237.918 467.722H227.284V478.356H237.918V467.722Z" fill="#E6E6E6"/>
<path d="M237.918 486.884H227.284V497.518H237.918V486.884Z" fill="#71BC78"/>
<path d="M237.918 505.133H227.284V515.767H237.918V505.133Z" fill="#E6E6E6"/>
<path d="M237.918 525.157H227.284V535.79H237.918V525.157Z" fill="#E6E6E6"/>
<path d="M237.918 544.715H227.284V555.349H237.918V544.715Z" fill="#E6E6E6"/>
<path d="M141.348 418.624L144.453 425.041C144.453 425.041 162.079 448.565 151.191 452.25C140.302 455.935 134.524 429.939 134.524 429.939L131.645 426.301L141.348 418.624Z" fill="#A0616A"/>
<path d="M121.043 297.11L123.941 295.884C123.941 295.884 127.37 297.11 127.37 302.382C127.37 307.654 123.152 384.622 123.152 384.622L131.587 426.797L119.989 428.906L102.065 389.894L121.043 297.11Z" fill="#575A89"/>
<path d="M121.043 297.11L123.941 295.884C123.941 295.884 127.37 297.11 127.37 302.382C127.37 307.654 123.152 384.622 123.152 384.622L145.821 420.998L131.06 431.542L102.065 389.894L121.043 297.11Z" fill="#71BC78"/>
<path d="M118.935 419.416C118.935 419.416 132.641 424.688 131.587 434.177C130.533 443.667 116.826 632.398 116.826 632.398L121.043 653.485L80.9776 654.54L79.9232 518.527L51.4554 654.54H11.3895L39.8574 415.199L118.935 419.416Z" fill="#2F2E41"/>
<path d="M85.1951 259.153C99.1705 259.153 110.5 247.824 110.5 233.848C110.5 219.873 99.1705 208.543 85.1951 208.543C71.2196 208.543 59.8903 219.873 59.8903 233.848C59.8903 247.824 71.2196 259.153 85.1951 259.153Z" fill="#A0616A"/>
<path d="M101.011 248.61L98.902 291.838L66.216 272.86L70.434 248.61H101.011Z" fill="#A0616A"/>
<path d="M65.162 262.316L95.739 284.458L101.011 268.642L110.5 293.947L105.228 339.285L65.162 262.316Z" fill="#71BC78"/>
<path d="M68.4399 259.191L98.9018 305.545L100.124 266.79L103.875 269.747C105.94 271.374 107.609 273.449 108.756 275.814C109.904 278.18 110.5 280.774 110.5 283.403L125.261 297.11L119.989 349.828L118.935 412.036C118.935 412.036 125.261 417.308 123.152 420.471C121.043 423.634 112.609 431.014 103.119 431.014C93.63 431.014 34.5856 423.634 34.5856 419.416C34.5856 415.199 36.6943 360.372 36.6943 360.372V286.566L61.9991 267.588L68.4399 259.191Z" fill="#71BC78"/>
<path d="M32.477 434.178L46.184 454.211L51.455 431.015L45.129 426.797L32.477 434.178Z" fill="#A0616A"/>
<path d="M48.2923 285.512L38.6941 285.067L36.6943 286.566C34.399 288.86 32.284 291.328 30.3681 293.947C28.2594 297.11 0.845893 374.079 0.845893 374.079C0.337179 378.753 1.06432 383.48 2.95463 387.785C6.11772 395.166 31.4225 439.449 31.4225 439.449L50.401 427.851L25.0963 376.187L43.0205 350.883L48.2923 285.512Z" fill="#71BC78"/>
<path d="M485.395 161.476H481.662V59.1965C481.662 51.4227 480.13 43.725 477.155 36.5429C474.181 29.3609 469.82 22.8351 464.323 17.3382C458.826 11.8413 452.301 7.48091 445.118 4.50602C437.936 1.53113 430.239 -2.23245e-05 422.465 2.73715e-10H205.773C197.999 -2.36377e-05 190.301 1.53113 183.119 4.50602C175.937 7.48091 169.411 11.8413 163.914 17.3382C158.417 22.8351 154.057 29.3609 151.082 36.5429C148.107 43.725 146.576 51.4227 146.576 59.1965V620.308C146.576 628.082 148.107 635.78 151.082 642.962C154.057 650.144 158.417 656.67 163.914 662.167C169.411 667.664 175.937 672.024 183.119 674.999C190.301 677.974 197.999 679.505 205.773 679.505H422.465C430.239 679.505 437.936 677.974 445.118 674.999C452.301 672.024 458.826 667.664 464.323 662.167C469.82 656.67 474.181 650.144 477.155 642.962C480.13 635.78 481.662 628.082 481.662 620.308V234.28H485.395V161.476Z" fill="#3F3D56"/>
<path d="M469.593 55.232V624.273C469.591 636.177 464.861 647.594 456.443 656.012C448.025 664.43 436.608 669.16 424.704 669.163H203.568C191.66 669.164 180.24 664.436 171.818 656.017C163.396 647.599 158.663 636.18 158.66 624.273V55.232C158.663 43.3243 163.396 31.9056 171.818 23.4873C180.24 15.0691 191.66 10.3407 203.568 10.3422H230.393C229.076 13.5815 228.575 17.0946 228.933 20.573C229.292 24.0513 230.5 27.3883 232.45 30.2907C234.4 33.1931 237.034 35.572 240.119 37.2182C243.204 38.8645 246.646 39.7277 250.143 39.7321H376.22C379.716 39.7278 383.159 38.8646 386.244 37.2183C389.329 35.572 391.962 33.1932 393.912 30.2908C395.863 27.3884 397.07 24.0514 397.429 20.573C397.787 17.0946 397.286 13.5814 395.969 10.3422H424.704C436.608 10.3446 448.025 15.0748 456.443 23.4928C464.861 31.9107 469.591 43.3272 469.593 55.232V55.232Z" fill="#E6E6E6"/>
<path d="M425.673 351.565H202.58V574.659H425.673V351.565Z" fill="white"/>
<path d="M377.676 250.974H251.838V260.433H377.676V250.974Z" fill="white"/>
<path d="M393.369 275.551H235.001V285.009H393.369V275.551Z" fill="white"/>
<path d="M353.707 373.102H266.865V379.629H353.707V373.102Z" fill="#E6E6E6"/>
<path d="M400.969 392.264H266.865V398.791H400.969V392.264Z" fill="#71BC78"/>
<path d="M377.551 410.513H268.26V417.04H377.551V410.513Z" fill="#E6E6E6"/>
<path d="M330.668 430.536H266.865V437.063H330.668V430.536Z" fill="#E6E6E6"/>
<path d="M237.918 371.049H227.284V381.682H237.918V371.049Z" fill="#E6E6E6"/>
<path d="M237.918 390.21H227.284V400.844H237.918V390.21Z" fill="#71BC78"/>
<path d="M237.918 408.459H227.284V419.093H237.918V408.459Z" fill="#E6E6E6"/>
<path d="M237.918 428.483H227.284V439.117H237.918V428.483Z" fill="#E6E6E6"/>
<path d="M314.126 222.531C354.297 222.531 386.862 189.966 386.862 149.795C386.862 109.624 354.297 77.0593 314.126 77.0593C273.956 77.0593 241.391 109.624 241.391 149.795C241.391 189.966 273.956 222.531 314.126 222.531Z" fill="white"/>
<path d="M313.526 114.125C306.434 114.125 299.502 116.228 293.605 120.168C287.709 124.108 283.113 129.708 280.399 136.259C277.685 142.811 276.975 150.021 278.359 156.976C279.742 163.931 283.157 170.32 288.172 175.335C293.186 180.349 299.575 183.764 306.531 185.148C313.486 186.531 320.695 185.821 327.247 183.107C333.799 180.394 339.399 175.798 343.339 169.901C347.279 164.005 349.382 157.073 349.382 149.981C349.354 140.48 345.567 131.376 338.849 124.658C332.131 117.939 323.027 114.153 313.526 114.125V114.125ZM313.526 124.882C315.653 124.882 317.733 125.513 319.502 126.695C321.271 127.876 322.65 129.556 323.464 131.522C324.278 133.488 324.491 135.65 324.076 137.737C323.661 139.824 322.636 141.74 321.132 143.245C319.628 144.749 317.711 145.774 315.624 146.189C313.538 146.604 311.375 146.391 309.409 145.576C307.444 144.762 305.764 143.384 304.582 141.615C303.4 139.846 302.769 137.766 302.769 135.638C302.779 132.788 303.915 130.058 305.93 128.043C307.945 126.028 310.676 124.891 313.526 124.882V124.882ZM313.526 176.666C309.276 176.647 305.096 175.591 301.347 173.59C297.598 171.589 294.394 168.704 292.012 165.185C292.185 158.014 306.355 154.066 313.526 154.066C320.697 154.066 334.867 158.014 335.039 165.185C332.655 168.702 329.45 171.585 325.702 173.585C321.953 175.585 317.774 176.643 313.526 176.666Z" fill="#71BC78"/>
<path d="M59.952 232.888C59.952 232.888 57.177 228.726 58.2443 224.243C58.8821 221.698 59.1339 219.072 58.9915 216.452C60.1853 212.568 61.6842 208.785 63.4741 205.138C65.7155 201.083 64.6481 199.375 71.6923 198.094C78.7366 196.813 75.8548 187.635 94.4259 197.56C95.0525 198.435 95.9241 199.105 96.9309 199.485C97.9376 199.865 99.0343 199.938 100.083 199.695C103.925 198.948 105.312 204.285 105.312 204.285C105.312 204.285 107.874 202.79 108.834 204.925C109.795 207.059 116.644 203.644 116.644 218.052C116.644 232.461 108.85 245.332 108.85 245.332C108.85 245.332 109.422 221.095 96.7206 218.64C84.0197 216.185 70.3582 209.034 67.0496 218.213C65.2636 223.364 62.8816 228.29 59.952 232.888Z" fill="#2F2E41"/>
</svg>
